<?xml version="1.0" encoding="utf-8"?>
<!-- Generator: Adobe Illustrator 27.5.0, SVG Export Plug-In . SVG Version: 6.00 Build 0)  -->
<svg version="1.1" xmlns="http://www.w3.org/2000/svg" xmlns:xlink="http://www.w3.org/1999/xlink" x="0px" y="0px"
	 viewBox="0 0 500 500" style="enable-background:new 0 0 500 500;" xml:space="preserve">
<g id="BACKGROUNDS">
	<rect style="fill:#FFFAF0;" width="500" height="500"/>
</g>
<g id="OBJECTS">
	<g>
		<g>
			<g style="opacity:0.5;">
				<g>
					<rect x="344.484" y="82" style="fill:#BABCBE;" width="131.767" height="280.092"/>
					<g>
						<g>
							<rect x="346.294" y="90.2" style="fill:#808183;" width="13.179" height="48.394"/>
							<rect x="362.103" y="90.2" style="fill:#808183;" width="13.179" height="48.394"/>
							<rect x="377.913" y="90.2" style="fill:#808183;" width="13.179" height="48.394"/>
							<rect x="393.723" y="90.2" style="fill:#808183;" width="13.179" height="48.394"/>
							
								<rect x="415.532" y="90.2" transform="matrix(0.9004 -0.4351 0.4351 0.9004 -7.7223 195.0668)" style="fill:#808183;" width="13.179" height="48.394"/>
						</g>
						<g>
							
								<rect x="459.397" y="313.241" transform="matrix(-1 -1.224647e-16 1.224647e-16 -1 931.9731 674.8764)" style="fill:#808183;" width="13.179" height="48.394"/>
							
								<rect x="443.587" y="313.241" transform="matrix(-1 -1.224647e-16 1.224647e-16 -1 900.3538 674.8764)" style="fill:#808183;" width="13.179" height="48.394"/>
							
								<rect x="427.778" y="313.241" transform="matrix(-1 -1.224647e-16 1.224647e-16 -1 868.7344 674.8764)" style="fill:#808183;" width="13.179" height="48.394"/>
							
								<rect x="411.968" y="313.241" transform="matrix(-1 -1.224647e-16 1.224647e-16 -1 837.115 674.8764)" style="fill:#808183;" width="13.179" height="48.394"/>
							
								<rect x="390.158" y="313.241" transform="matrix(-0.9004 -0.4351 0.4351 -0.9004 607.1453 813.89)" style="fill:#808183;" width="13.179" height="48.394"/>
						</g>
						<g>
							<path style="fill:#808183;" d="M464.075,177.728c4.972-5.37,4.631-12.58,4.631-12.58h-9.977h-7.273h-9.977
								c0,0-0.341,7.21,4.631,12.58c4.972,5.37-16.11,20.738,1.591,35.23h3.755h7.273h3.755
								C480.185,198.465,459.102,183.098,464.075,177.728z"/>
							<path style="fill:#808183;" d="M430.656,191.635c3.009-3.25,2.803-7.614,2.803-7.614h-6.039h-4.402h-6.039
								c0,0-0.207,4.364,2.803,7.614c3.009,3.25-9.751,12.552,0.963,21.323h2.273h4.402h2.272
								C440.407,204.186,427.647,194.885,430.656,191.635z"/>
							<g>
								<g>
									<circle style="fill:#FFFAF0;" cx="387.462" cy="185.854" r="22.489"/>
									<circle style="fill:#D0D1D3;" cx="387.462" cy="185.854" r="13.358"/>
								</g>
								<g>
									<polygon style="fill:#6D6E70;" points="369.47,212.958 376.804,198.358 381.304,198.358 375.387,212.958 									"/>
									<polygon style="fill:#6D6E70;" points="406.737,212.958 399.404,198.358 394.904,198.358 400.82,212.958 									"/>
								</g>
							</g>
							<g>
								<path style="fill:#E6E6E7;" d="M471.181,253.914c0.605,1.96,0.963,3.941,1.091,5.901c0.663,9.928-4.528,19.438-13.291,24.24
									l-0.006,0.002c-1.495,0.819-3.101,1.504-4.792,2.026c-1.454,0.449-2.923,0.761-4.382,0.945l-0.006,0.002
									c-10.22,1.287-20.224-3.689-25.386-12.503c-0.989-1.681-1.796-3.502-2.395-5.443c-0.712-2.307-1.081-4.641-1.138-6.94
									c-0.081-3.175,0.43-6.294,1.465-9.216c1.814-5.128,5.23-9.634,9.848-12.75l0.006-0.002c2.05-1.383,4.332-2.494,6.818-3.261
									c2.467-0.761,4.963-1.131,7.423-1.14l0.006-0.002c5.502-0.042,10.806,1.704,15.168,4.835
									c2.728,1.951,5.085,4.452,6.89,7.389l0.01,0.011C469.623,249.819,470.526,251.793,471.181,253.914z"/>
								<polygon style="fill:#A6A8AA;" points="444.168,253.62 448.328,258.017 454.309,257.082 451.412,262.398 454.149,267.797 
									448.199,266.685 443.91,270.957 443.129,264.954 437.741,262.194 443.208,259.597 								"/>
								<path style="fill:#A6A8AA;" d="M462.164,241.7l-5.949-1.111l-4.289,4.27l-0.786-6.003l-5.384-2.759l0.68-0.322l0.006-0.002
									c5.502-0.042,10.806,1.704,15.168,4.835L462.164,241.7z"/>
								<path style="fill:#A6A8AA;" d="M461.503,279.424l-2.522,4.631l-0.006,0.002c-1.495,0.819-3.101,1.504-4.792,2.026
									c-1.454,0.449-2.923,0.761-4.382,0.945l-0.006,0.002l-4.86-2.493l5.465-2.598l0.962-5.98l4.158,4.401L461.503,279.424z"/>
								<path style="fill:#A6A8AA;" d="M429.977,245.386l2.733,5.402l-5.95-1.111l-4.289,4.271l-0.132-1.019
									c1.814-5.128,5.23-9.634,9.848-12.75l0.006-0.002l0.677-0.104L429.977,245.386z"/>
								<path style="fill:#A6A8AA;" d="M428.349,269.515l2.733,5.402l-5.949-1.112l-0.725,0.722
									c-0.989-1.681-1.796-3.502-2.395-5.443c-0.712-2.307-1.081-4.641-1.138-6.94l0.225-1.41l4.164,4.399l5.978-0.932
									L428.349,269.515z"/>
								<path style="fill:#A6A8AA;" d="M471.181,253.914c0.605,1.96,0.963,3.941,1.091,5.901l-1.117-0.21l-4.289,4.27l-0.786-6.003
									l-5.384-2.759l5.465-2.598l0.961-5.98l1.378,1.463l0.01,0.011C469.623,249.819,470.526,251.793,471.181,253.914z"/>
							</g>
						</g>
					</g>
					<path style="fill:#A6A8AA;" d="M334.484,72v300.092h151.767V72H334.484z M476.251,362.092H344.484V82h131.767V362.092z"/>
				</g>
				<rect x="358.087" y="371.404" style="fill:#A6A8AA;" width="17.037" height="19.784"/>
				<rect x="449.148" y="371.404" style="fill:#A6A8AA;" width="17.037" height="19.784"/>
				<rect x="336.947" y="138.594" style="fill:#A6A8AA;" width="145.053" height="10"/>
				<rect x="336.947" y="212.958" style="fill:#A6A8AA;" width="145.053" height="10"/>
				<rect x="336.947" y="287.322" style="fill:#A6A8AA;" width="145.053" height="10"/>
			</g>
			<g style="opacity:0.5;">
				<g>
					<g>
						<path style="fill:#BABCBE;" d="M54,221.957c1.191,0.844,2.187,1.918,3.398,2.743c0.572,0.39,1.243,0.757,1.85,1.185
							c0.503-2.349,1.187-4.659,2.034-6.894c-1.634-0.357-3.1-0.963-4.423-2.013c-1.256-0.997-2.865-2.849-2.347-4.554
							c0.306-1.006,1.22-1.398,2.201-1.249c1.232,0.187,2.251,1.732,3.135,2.552c0.854,0.792,1.772,1.46,2.814,1.963
							c0.647-1.441,1.397-2.994,2.255-4.559c-0.018-0.002-0.035,0.002-0.053-0.001c-1.547-0.227-3.57-1.928-4.513-3.125
							c-1.121-1.423-2.098-3.843-0.732-5.37c0.377-0.421,0.995-0.524,1.52-0.402c1.433,0.333,2.201,2.128,2.87,3.309
							c0.322,0.568,0.509,1.193,0.911,1.711c0.432,0.557,0.957,0.991,1.361,1.561c0.864-1.387,1.798-2.736,2.817-3.95
							c-2.607-2.131-3.982-6.113-2.231-9.248c0.898-1.61,3.369-1.212,3.861,0.505c0.363,1.266,0.274,2.733,0.41,4.051
							c0.086,0.838,0.037,1.713-0.025,2.58c0.855-0.783,1.748-1.467,2.685-1.996c0.086-0.147,0.195-0.281,0.366-0.381
							c0.828-0.483,1.5-1.639,2.3-2.226c0.975-0.715,2.12-1.137,3.295-1.412c2.064-0.481,5.091-1.324,6.629,0.567
							c0.566,0.696,0.766,1.559,0.307,2.377c-1.11,1.977-3.498,1.855-5.488,2.307c-0.953,0.217-1.947,0.495-2.929,0.54
							c-0.818,0.037-1.965-0.297-2.858-0.19c-0.741,1.153-1.669,2.216-2.632,3.261c0.56-0.137,1.099-0.229,1.562-0.282
							c2.336-0.267,5.214-0.445,7.073,1.162c0.77,0.665,0.551,2.079-0.327,2.539c-1.863,0.976-4.376,0.605-6.452,0.693
							c-1.523,0.065-3.719,0.326-5.247-0.267c-0.135,0.178-0.276,0.354-0.404,0.535c-0.898,1.283-1.721,2.616-2.49,3.978
							c0.888-0.163,1.804-0.136,2.734-0.176c1.561-0.065,3.054-0.659,4.6-0.638c2.073,0.03,2.962,2.926,1.077,3.977
							c-2.479,1.382-7.447,1.337-9.659-0.803c-0.514,1.04-1.004,2.091-1.442,3.166c-0.331,0.813-0.631,1.629-0.911,2.448
							c0.572-0.119,1.176-0.109,1.846-0.173c1.317-0.124,2.568-0.58,3.862-0.825c2.976-0.563,4.105,3.502,1.249,4.532
							c-1.564,0.564-3.24,0.505-4.859,0.258c-1-0.153-2.181-0.331-2.965-0.989c-1.451,5.298-1.965,10.733-1.946,16.328
							c0.002,0.744-1.216,0.961-1.341,0.182c-0.652-4.059-0.628-8.218-0.042-12.303c-1.148,0.117-2.457-0.213-3.363-0.598
							c-1.682-0.715-3.391-1.79-4.29-3.439C50.092,223.146,52.141,220.639,54,221.957z"/>
						<path style="fill:#BABCBE;" d="M55.143,220.637c-1.191,0.844-2.187,1.918-3.398,2.743c-0.572,0.39-1.243,0.757-1.85,1.186
							c-0.503-2.35-1.186-4.659-2.034-6.894c1.634-0.357,3.1-0.963,4.423-2.013c1.256-0.997,2.865-2.849,2.347-4.553
							c-0.306-1.006-1.22-1.398-2.201-1.25c-1.232,0.187-2.251,1.731-3.135,2.552c-0.854,0.792-1.772,1.46-2.815,1.964
							c-0.647-1.441-1.396-2.994-2.255-4.558c0.018-0.002,0.035,0.002,0.054-0.001c1.547-0.227,3.57-1.928,4.513-3.125
							c1.121-1.422,2.098-3.843,0.732-5.37c-0.376-0.421-0.994-0.523-1.52-0.402c-1.433,0.332-2.201,2.128-2.87,3.308
							c-0.322,0.568-0.509,1.193-0.911,1.711c-0.432,0.557-0.957,0.991-1.361,1.562c-0.864-1.387-1.798-2.736-2.817-3.95
							c2.607-2.131,3.981-6.113,2.231-9.248c-0.899-1.61-3.369-1.212-3.861,0.505c-0.362,1.266-0.274,2.733-0.41,4.051
							c-0.086,0.838-0.037,1.713,0.025,2.58c-0.855-0.783-1.748-1.468-2.685-1.996c-0.085-0.147-0.195-0.281-0.366-0.381
							c-0.828-0.483-1.5-1.639-2.3-2.225c-0.975-0.715-2.12-1.138-3.295-1.412c-2.064-0.481-5.091-1.325-6.629,0.567
							c-0.566,0.696-0.766,1.559-0.307,2.377c1.11,1.977,3.498,1.855,5.488,2.308c0.953,0.217,1.947,0.495,2.929,0.539
							c0.818,0.037,1.965-0.297,2.858-0.19c0.741,1.153,1.669,2.216,2.632,3.261c-0.56-0.137-1.099-0.229-1.562-0.282
							c-2.336-0.266-5.214-0.445-7.073,1.162c-0.77,0.665-0.551,2.079,0.327,2.539c1.863,0.975,4.376,0.604,6.452,0.692
							c1.523,0.065,3.719,0.326,5.247-0.267c0.135,0.178,0.276,0.354,0.404,0.536c0.898,1.283,1.72,2.615,2.49,3.978
							c-0.888-0.163-1.804-0.137-2.734-0.176c-1.561-0.065-3.054-0.66-4.599-0.638c-2.073,0.03-2.962,2.926-1.077,3.977
							c2.479,1.382,7.447,1.337,9.659-0.804c0.514,1.04,1.004,2.091,1.442,3.166c0.331,0.813,0.631,1.629,0.911,2.448
							c-0.572-0.119-1.176-0.109-1.846-0.172c-1.317-0.124-2.568-0.581-3.862-0.825c-2.976-0.563-4.105,3.501-1.249,4.532
							c1.563,0.564,3.24,0.505,4.859,0.258c1-0.152,2.181-0.331,2.965-0.989c1.451,5.298,1.965,10.733,1.946,16.329
							c-0.002,0.744,1.216,0.961,1.341,0.181c0.652-4.059,0.628-8.218,0.042-12.303c1.148,0.117,2.457-0.213,3.364-0.598
							c1.682-0.714,3.391-1.79,4.29-3.439C59.051,221.826,57.002,219.319,55.143,220.637z"/>
						<path style="fill:#E5E5E6;" d="M63.752,224.283c-1.453,0.136-2.853,0.568-4.313,0.678c-0.69,0.052-1.455,0.034-2.195,0.102
							c0.739-2.286,1.301-4.628,1.684-6.988c1.594,0.507,3.166,0.716,4.837,0.467c1.586-0.236,3.905-1.036,4.309-2.771
							c0.238-1.024-0.359-1.821-1.282-2.182c-1.161-0.454-2.815,0.375-3.991,0.644c-1.135,0.259-2.264,0.379-3.419,0.294
							c0.16-1.571,0.287-3.291,0.326-5.075c0.016,0.007,0.029,0.019,0.047,0.026c1.453,0.577,4.056,0.114,5.47-0.451
							c1.682-0.672,3.738-2.28,3.318-4.285c-0.116-0.553-0.6-0.951-1.115-1.107c-1.407-0.428-2.97,0.743-4.139,1.431
							c-0.563,0.332-1.037,0.779-1.644,1.027c-0.653,0.267-1.325,0.38-1.959,0.672c-0.055-1.633-0.19-3.268-0.466-4.829
							c3.323-0.543,6.503-3.304,6.555-6.895c0.026-1.844-2.313-2.733-3.597-1.492c-0.947,0.915-1.603,2.23-2.38,3.304
							c-0.493,0.683-0.888,1.465-1.268,2.247c-0.349-1.106-0.78-2.145-1.328-3.07c0-0.17-0.029-0.341-0.126-0.512
							c-0.476-0.832-0.48-2.17-0.88-3.077c-0.488-1.107-1.268-2.045-2.149-2.869c-1.547-1.449-3.747-3.691-6.025-2.822
							c-0.838,0.32-1.443,0.967-1.454,1.906c-0.026,2.268,2.103,3.355,3.6,4.741c0.717,0.664,1.438,1.401,2.268,1.931
							c0.69,0.441,1.851,0.724,2.57,1.263c0.065,1.369,0.338,2.753,0.65,4.14c-0.417-0.399-0.837-0.748-1.212-1.025
							c-1.89-1.398-4.293-2.992-6.708-2.528c-1,0.192-1.516,1.526-0.986,2.363c1.126,1.776,3.488,2.71,5.242,3.824
							c1.287,0.817,3.059,2.141,4.678,2.391c0.028,0.222,0.063,0.444,0.082,0.665c0.137,1.56,0.183,3.125,0.169,4.69
							c-0.688-0.585-1.494-1.019-2.281-1.518c-1.319-0.837-2.316-2.098-3.665-2.851c-1.81-1.01-4.028,1.055-2.921,2.907
							c1.457,2.436,5.782,4.879,8.768,4.131c-0.075,1.157-0.175,2.313-0.333,3.463c-0.12,0.869-0.268,1.726-0.435,2.576
							c-0.436-0.389-0.964-0.682-1.513-1.072c-1.079-0.766-1.935-1.786-2.933-2.645c-2.296-1.975-5.305,0.982-3.347,3.301
							c1.073,1.27,2.554,2.056,4.08,2.652c0.942,0.368,2.055,0.803,3.063,0.626c-1.391,5.314-3.663,10.278-6.475,15.116
							c-0.374,0.643,0.573,1.44,1.071,0.827c2.594-3.19,4.651-6.805,6.185-10.636c0.935,0.675,2.235,1.044,3.212,1.163
							c1.814,0.222,3.832,0.145,5.434-0.835C66.543,227.266,66.021,224.071,63.752,224.283z"/>
						<path style="fill:#E5E5E6;" d="M50.095,218.536c-0.851,1.186-1.444,2.525-2.319,3.699c-0.414,0.555-0.929,1.12-1.363,1.723
							c-1.24-2.058-2.639-4.019-4.168-5.856c1.428-0.87,2.618-1.92,3.527-3.344c0.863-1.352,1.781-3.626,0.737-5.07
							c-0.617-0.852-1.61-0.924-2.488-0.465c-1.104,0.578-1.564,2.37-2.133,3.434c-0.549,1.027-1.2,1.957-2.022,2.773
							c-1.081-1.152-2.295-2.376-3.616-3.576c0.016-0.008,0.034-0.01,0.05-0.018c1.389-0.718,2.747-2.986,3.249-4.423
							c0.597-1.71,0.732-4.317-1.056-5.316c-0.493-0.275-1.111-0.171-1.567,0.115c-1.247,0.781-1.389,2.728-1.636,4.063
							c-0.119,0.642-0.093,1.294-0.304,1.914c-0.227,0.668-0.582,1.249-0.778,1.92c-1.268-1.031-2.591-2.001-3.949-2.818
							c1.771-2.863,1.774-7.076-0.902-9.47c-1.374-1.23-3.58-0.049-3.486,1.735c0.069,1.314,0.63,2.673,0.932,3.963
							c0.191,0.82,0.523,1.632,0.864,2.431c-1.063-0.462-2.13-0.818-3.188-1.013c-0.128-0.111-0.276-0.202-0.469-0.241
							c-0.94-0.187-1.953-1.061-2.9-1.355c-1.155-0.359-2.375-0.385-3.576-0.262c-2.108,0.217-5.244,0.405-6.083,2.694
							c-0.309,0.843-0.217,1.723,0.484,2.347c1.694,1.508,3.912,0.615,5.94,0.395c0.971-0.105,2.002-0.166,2.945-0.444
							c0.785-0.232,1.761-0.921,2.64-1.111c1.076,0.849,2.299,1.552,3.551,2.226c-0.575,0.053-1.114,0.141-1.569,0.242
							c-2.295,0.509-5.075,1.277-6.309,3.402c-0.511,0.88,0.156,2.145,1.136,2.294c2.079,0.316,4.334-0.853,6.326-1.446
							c1.461-0.435,3.623-0.903,4.874-1.961c0.186,0.124,0.376,0.244,0.556,0.375c1.266,0.921,2.478,1.913,3.65,2.95
							c-0.893,0.135-1.75,0.458-2.642,0.724c-1.497,0.447-3.103,0.371-4.557,0.895c-1.95,0.703-1.847,3.731,0.277,4.111
							c2.794,0.499,7.476-1.161,8.871-3.905c0.824,0.816,1.63,1.65,2.394,2.524c0.577,0.661,1.127,1.335,1.658,2.018
							c-0.579,0.074-1.147,0.28-1.801,0.438c-1.285,0.312-2.617,0.288-3.92,0.477c-2.997,0.437-2.741,4.648,0.295,4.692
							c1.662,0.024,3.227-0.577,4.679-1.338c0.896-0.47,1.954-1.023,2.482-1.9c3.097,4.536,5.352,9.508,7.157,14.805
							c0.24,0.704,1.462,0.513,1.327-0.265c-0.705-4.05-2.082-7.975-3.967-11.646c1.123-0.263,2.254-1.002,2.986-1.661
							c1.358-1.224,2.624-2.797,2.936-4.649C54.177,218.387,51.424,216.685,50.095,218.536z"/>
					</g>
					<g>
						<polygon style="fill:#919395;" points="34.578,226.604 35.256,230.239 35.712,232.658 36.541,237.179 36.998,239.599 
							37.841,244.119 38.283,246.538 39.417,252.594 66.361,252.594 67.481,246.538 67.937,244.119 68.767,239.599 69.223,237.179 
							70.066,232.658 70.509,230.239 71.186,226.604 						"/>
						<polygon style="fill:#BABCBE;" points="35.256,230.239 35.712,232.658 70.066,232.658 70.509,230.239 						"/>
						<polygon style="fill:#BABCBE;" points="36.541,237.179 36.998,239.599 68.767,239.599 69.223,237.179 						"/>
						<polygon style="fill:#BABCBE;" points="37.841,244.119 38.283,246.538 67.481,246.538 67.937,244.119 						"/>
					</g>
				</g>
				<g>
					<g>
						<rect y="252.9" style="fill:#BABCBE;" width="277.47" height="120.31"/>
						<g>
							<rect y="269.8" style="fill:#E5E5E6;" width="277.47" height="6.39"/>
							<rect y="294.61" style="fill:#E5E5E6;" width="277.47" height="6.39"/>
							<rect y="319.42" style="fill:#E5E5E6;" width="277.47" height="6.39"/>
							<rect y="344.23" style="fill:#E5E5E6;" width="277.47" height="6.38"/>
						</g>
					</g>
					<g>
						<rect x="211.124" y="373.213" style="fill:#919395;" width="29.173" height="18.252"/>
					</g>
				</g>
				<g>
					<rect x="179.127" y="217.633" style="fill:#E5E5E6;" width="22.654" height="30.631"/>
					<path style="fill:#919395;" d="M174.49,213v39.9h31.93V213H174.49z M201.78,248.26h-22.65v-30.63h22.65V248.26z"/>
				</g>
				<g>
					<rect x="225.723" y="217.633" style="fill:#E5E5E6;" width="22.654" height="30.631"/>
					<path style="fill:#919395;" d="M221.09,213v39.9h31.92V213H221.09z M248.38,248.26h-22.66v-30.63h22.66V248.26z"/>
				</g>
			</g>
			<rect y="391.188" style="fill:#CEC6BA;" width="500" height="108.812"/>
			<g style="opacity:0.5;">
				<g>
					
						<ellipse transform="matrix(0.2327 -0.9726 0.9726 0.2327 137.7502 301.3264)" style="fill:#919395;" cx="259.835" cy="63.367" rx="29.354" ry="29.354"/>
				</g>
				<g>
					<circle style="fill:#E5E5E6;" cx="259.835" cy="63.367" r="20.757"/>
				</g>
				<g>
					<path style="fill:#919395;" d="M248.857,52.055c0.334,0,0.671,0.111,0.95,0.34l10.979,9c0.348,0.285,0.549,0.711,0.549,1.16
						v15.667c0,0.829-0.672,1.5-1.5,1.5s-1.5-0.671-1.5-1.5V63.264l-10.43-8.55c-0.641-0.525-0.734-1.471-0.209-2.111
						C247.992,52.242,248.423,52.055,248.857,52.055z"/>
				</g>
			</g>
			<g style="opacity:0.5;">
				<rect x="22.027" y="26.151" style="fill:#E5E5E6;" width="54.173" height="123.78"/>
				<path style="fill:#919395;" d="M81.114,21.236H17.112v133.609h64.002V21.236z M22.027,149.931V26.151h54.173v123.78H22.027z"/>
			</g>
			<g style="opacity:0.5;">
				<rect x="100.267" y="76.151" style="fill:#E5E5E6;" width="54.173" height="73.78"/>
				<path style="fill:#919395;" d="M159.355,71.236H95.353v83.609h64.002V71.236z M100.267,149.931v-73.78h54.173v73.78H100.267z"/>
			</g>
		</g>
		<g>
			<ellipse style="fill:#6E4565;" cx="250" cy="444.884" rx="224.705" ry="34.695"/>
			<ellipse style="fill:#915D87;" cx="250" cy="441.53" rx="160.715" ry="21.461"/>
			<g>
				<g>
					<path style="fill:#65A8DF;" d="M317.643,289.522l1.362-22.83c0.073-1.222-1.204-2.065-2.299-1.517l-20.452,10.236
						c-1.095,0.548-1.186,2.075-0.164,2.75l19.09,12.594C316.202,291.428,317.57,290.744,317.643,289.522z"/>
					<path style="fill:#FFFFFF;" d="M314.426,284.32l0.772-12.942c0.041-0.693-0.683-1.171-1.303-0.86l-11.594,5.802
						c-0.621,0.311-0.672,1.177-0.093,1.559l10.822,7.14C313.609,285.401,314.385,285.013,314.426,284.32z"/>
				</g>
				<g>
					<g>
						<g>
							<g>
								<path style="fill:#EA7C6F;" d="M319.039,314.361l-3.778,0.521l-1.76,1.675c-1.421,1.035-17.675,3.591-18.148,2.593
									c-0.127-0.264-0.239-0.571-0.336-0.872c-0.055-0.177-0.103-0.349-0.15-0.513c-0.073-0.27-0.13-0.516-0.173-0.701
									c-0.054-0.225-0.078-0.365-0.078-0.365s-0.42-0.44-0.843-1.009c-0.258-0.337-0.508-0.715-0.68-1.069l-0.001-0.007
									c-0.182-0.38-0.26-0.745-0.14-0.998c0.125-0.26,1.047-0.752,2.293-1.317c3.064-1.423,8.075-3.352,7.748-3.578
									c-0.466-0.312-12.243,1.074-12.243,1.074s-0.287-0.231-0.509-0.667c-0.134-0.263-0.248-0.59-0.268-0.989
									c-0.053-1.063,16.566-5.398,16.566-5.398c-2.439-1.205-4.458-3.278-5.6-5.756c-0.01-0.026-0.019-0.045-0.036-0.071
									l-0.001-0.007c-0.059-0.156-0.116-0.34-0.08-0.501c0.003-0.034,0.013-0.063,0.023-0.091
									c-0.007-0.006-0.001-0.007-0.001-0.007c0.018-0.023,0.035-0.052,0.053-0.074c0.012-0.015,0.024-0.03,0.036-0.038
									c0.024-0.03,0.055-0.054,0.087-0.072c0.007-0.001,0.006-0.008,0.006-0.008c0.051-0.026,0.096-0.052,0.148-0.072
									c0.902-0.374,1.95-0.145,2.815,0.309c0.864,0.448,1.596,1.102,2.397,1.646c1.548,1.047,3.388,1.452,5.199,1.848
									c0.196,0.045,0.387,0.103,0.573,0.176c0.366,0.154,0.718,0.37,1.049,0.63c1.156,0.896,2.084,2.331,2.69,3.463
									c0.132,0.243,0.247,0.467,0.346,0.673c0.001,0.007,0.001,0.007,0.001,0.007c0.299,0.618,0.459,1.041,0.459,1.041
									s0.459-0.035,1.08-0.075l0.303,2.074L319.039,314.361z"/>
								<g>
									<g>
										<path style="fill:#8E503D;" d="M293.772,315.69c0.299-0.076,0.603-0.157,0.908-0.249c1.784-0.53,3.333-1.217,4.422-1.775
											c1.021-0.524,1.649-0.924,1.722-0.973c-0.086,0.014-0.819,0.138-1.933,0.379c-1.191,0.258-2.814,0.639-4.568,1.161
											c-0.423,0.126-0.833,0.256-1.229,0.383C293.262,314.974,293.516,315.354,293.772,315.69z"/>
									</g>
									<g>
										<path style="fill:#8E503D;" d="M295.018,318.274c2.855-0.788,5.003-1.911,5.139-1.982
											c-0.155,0.002-2.583,0.069-5.468,0.77C294.759,317.361,294.869,317.811,295.018,318.274z"/>
									</g>
								</g>
								<path style="fill:#F3A080;" d="M318.086,307.836c-0.048-0.001-0.107,0.013-0.155,0.012
									c-0.263,0.018-0.534,0.037-0.801,0.021c-0.221-0.021-0.423-0.065-0.631-0.149c-0.532-0.236-0.874-0.76-1.167-1.269
									c-0.965-1.634-1.826-3.417-3.321-4.586c-1.767-1.388-4.139-1.696-6.137-2.737c-1.445-0.753-2.754-1.896-4.364-2.152
									c-0.195-0.031-0.393-0.041-0.608-0.07c-0.059-0.156-0.116-0.34-0.08-0.501c0.003-0.034,0.013-0.063,0.023-0.091
									c-0.007-0.006-0.001-0.007-0.001-0.007c0.01-0.028,0.027-0.058,0.045-0.08c0.012-0.015,0.024-0.03,0.044-0.032
									c0.024-0.03,0.055-0.054,0.087-0.072c0.007-0.001,0.006-0.008,0.006-0.008c0.051-0.026,0.096-0.052,0.148-0.072
									c0.902-0.374,1.95-0.145,2.815,0.309c0.864,0.448,1.596,1.102,2.397,1.646c1.548,1.047,3.388,1.452,5.199,1.848
									c0.196,0.045,0.387,0.103,0.573,0.176c0.366,0.16,0.718,0.37,1.049,0.63c1.156,0.896,2.084,2.331,2.69,3.463
									c0.132,0.243,0.247,0.467,0.346,0.673c0.001,0.007,0.001,0.007,0.001,0.007c0.299,0.618,0.459,1.041,0.459,1.041
									s0.459-0.035,1.08-0.075L318.086,307.836z"/>
							</g>
							<g>
								<path style="fill:#D1655D;" d="M314.581,311.071c0,0-0.123,0.023-0.336,0.063c-0.219,0.04-0.539,0.066-0.939,0.051
									c-0.794-0.023-1.928-0.286-2.95-1.005c-1.019-0.722-1.647-1.702-1.934-2.443c-0.147-0.372-0.23-0.682-0.266-0.902
									c-0.034-0.214-0.053-0.337-0.053-0.337s0.082,0.094,0.223,0.257c0.134,0.166,0.345,0.394,0.601,0.658
									c0.515,0.534,1.256,1.172,2.121,1.786c0.868,0.61,1.718,1.095,2.393,1.401c0.335,0.153,0.62,0.276,0.822,0.347
									C314.465,311.026,314.581,311.071,314.581,311.071z"/>
							</g>
						</g>
					</g>
					<path style="fill:#9B344F;" d="M350.901,257.658l-7.557,39.195l-25.91,8.215l1.323,11.025c0,0,33.598-2.447,35.943-3.409
						c2.345-0.962,4.414-19.765,4.414-19.765L350.901,257.658z"/>
				</g>
				<g>
					<g>
						<g>
							<g>
								<g>
									<g>
										<path style="fill:#EA7C6F;" d="M360.967,347.194l-28.689-0.469c-3.966,8.497-16.418,39.585-16.418,39.585l-2.942-1.109
											l-9.563-3.614c0,0,11.418-47.282,16.216-52.015c5.992-5.149,31.237-4.787,31.237-4.787l8.337,18.401L360.967,347.194z"/>
										<path style="fill:#EA7C6F;" d="M360.967,347.194l-28.689-0.469c-3.966,8.497-16.418,39.585-16.418,39.585l-2.942-1.109
											c3.326-8.262,16.311-40.309,17.622-41.333c1.237-0.981,21.226-0.842,28.604-0.682L360.967,347.194z"/>
									</g>
									<g>
										<g>
											<path style="fill:#526995;" d="M278.144,387.595c0.341-0.625,0.918-1.289,1.852-1.379
												c2.724-0.263,12.493-0.6,15.512-1.711c2.344-0.863,5.122-3.576,6.247-4.746l15.545,6.556
												c-0.676,4.689-3.147,13.303-3.671,15.104L278.144,387.595z"/>
											<polygon style="fill:#F7E4D9;" points="276.655,391.368 312.138,405.192 313.628,401.419 278.144,387.595 											"/>
											<g>
												<path style="fill:#F7E4D9;" d="M298.079,386.726c0.008,0.053,0.014,0.106,0.02,0.159
													c0.043,0.398-0.046,0.95-0.536,0.988c-0.25,0.02-0.482-0.106-0.691-0.241c-0.717-0.465-1.296-1.1-1.821-1.781
													c-0.564-0.732-1.162-1.52-1.342-2.475c-0.186-0.988,0.791-1.463,1.562-0.949
													C296.605,383.317,297.833,385.039,298.079,386.726z"/>
												<path style="fill:#F7E4D9;" d="M294.615,387.709c0.008,0.053,0.014,0.106,0.02,0.159
													c0.043,0.398-0.046,0.949-0.536,0.988c-0.25,0.02-0.482-0.105-0.691-0.24c-0.717-0.465-1.296-1.1-1.821-1.781
													c-0.564-0.732-1.163-1.52-1.342-2.475c-0.186-0.988,0.791-1.463,1.562-0.949
													C293.142,384.3,294.37,386.022,294.615,387.709z"/>
												<path style="fill:#F7E4D9;" d="M290.805,387.762c0.008,0.053,0.014,0.106,0.02,0.159
													c0.043,0.398-0.046,0.95-0.536,0.988c-0.25,0.02-0.482-0.105-0.69-0.24c-0.717-0.465-1.296-1.1-1.821-1.781
													c-0.564-0.732-1.162-1.52-1.342-2.475c-0.186-0.988,0.791-1.463,1.562-0.949
													C289.331,384.352,290.559,386.074,290.805,387.762z"/>
											</g>
										</g>
									</g>
								</g>
							</g>
						</g>
					</g>
				</g>
				<g>
					<path style="fill:#2A2B2B;" d="M360.338,315.737c0,0-34.781,7.622-38.95,9.855l14.422,20.633l49.379-5.169l5.8-22.657
						L360.338,315.737z"/>
				</g>
				<g>
					<g>
						<g>
							<polygon style="fill:#7EB39C;" points="87.229,358.706 70.246,275.391 78.304,275.391 97.088,360.126 							"/>
							<path style="fill:#BD4761;" d="M64.281,261.544c3.35-3.523,27.175-3.477,49.874-2.573v19.594H61.298
								C61.298,278.565,57.667,268.5,64.281,261.544z"/>
						</g>
					</g>
					<g>
						<g>
							<polygon style="fill:#7EB39C;" points="162.341,365.198 177.696,452.911 170.074,452.911 150.854,369.292 							"/>
							<polygon style="fill:#7EB39C;" points="85.601,365.198 70.246,452.911 77.868,452.911 97.088,369.292 							"/>
						</g>
						
							<rect x="78.304" y="424.342" transform="matrix(-1 -1.224647e-16 1.224647e-16 -1 247.3582 854.2573)" style="fill:#7EB39C;" width="90.75" height="5.574"/>
					</g>
					<path style="fill:#BD4761;" d="M175.319,356.153c0,0-86.423-6.956-93.038,0c-6.615,6.956-2.983,17.021-2.983,17.021h98.397
						L175.319,356.153z"/>
				</g>
				<g>
					<g>
						<g>
							<polygon style="fill:#E87458;" points="418.424,358.706 435.407,275.391 427.349,275.391 408.565,360.126 							"/>
							<g>
								<path style="fill:#4C8C7B;" d="M441.372,261.544c-3.35-3.523-27.175-3.477-49.874-2.573v19.594h52.857
									C444.355,278.565,447.986,268.5,441.372,261.544z"/>
							</g>
						</g>
					</g>
					<g>
						<g>
							<polygon style="fill:#E87458;" points="343.312,365.198 327.957,452.911 335.579,452.911 354.799,369.292 							"/>
							<polygon style="fill:#E87458;" points="420.052,365.198 435.407,452.911 427.785,452.911 408.565,369.292 							"/>
						</g>
						<rect x="336.599" y="424.342" style="fill:#E87458;" width="90.75" height="5.574"/>
					</g>
					<path style="fill:#4C8C7B;" d="M330.333,356.153c0,0,86.423-6.956,93.038,0c6.615,6.956,2.983,17.021,2.983,17.021h-98.397
						L330.333,356.153z"/>
				</g>
				<g>
					<g>
						<g>
							<g>
								<g>
									<g>
										<g>
											<path style="fill:#F3A080;" d="M368.21,355.963l-28.689-0.469c-3.966,8.497-16.418,39.585-16.418,39.585l-2.942-1.109
												l-9.563-3.614c0,0,11.418-47.282,16.215-52.015c5.992-5.149,31.237-4.787,31.237-4.787l8.337,18.401L368.21,355.963z"/>
											<path style="fill:#EA7C6F;" d="M368.21,355.963l-28.689-0.469c-3.966,8.497-16.418,39.585-16.418,39.585l-2.942-1.109
												c3.326-8.262,16.311-40.309,17.622-41.333c1.237-0.981,21.226-0.842,28.604-0.682L368.21,355.963z"/>
										</g>
										<g>
											<g>
												<path style="fill:#526995;" d="M285.388,396.365c0.341-0.625,0.918-1.289,1.852-1.379
													c2.724-0.263,12.493-0.6,15.512-1.711c2.344-0.863,5.122-3.576,6.247-4.746l15.545,6.556
													c-0.676,4.69-3.147,13.303-3.671,15.104L285.388,396.365z"/>
												<polygon style="fill:#F7E4D9;" points="283.898,400.138 319.382,413.961 320.872,410.189 285.388,396.365 												
													"/>
												<g>
													<path style="fill:#F7E4D9;" d="M305.322,395.496c0.008,0.053,0.014,0.106,0.02,0.159
														c0.043,0.398-0.046,0.95-0.536,0.988c-0.25,0.02-0.482-0.106-0.691-0.241c-0.717-0.465-1.296-1.1-1.821-1.781
														c-0.564-0.732-1.162-1.52-1.342-2.475c-0.186-0.988,0.791-1.463,1.562-0.949
														C303.849,392.086,305.077,393.808,305.322,395.496z"/>
													<path style="fill:#F7E4D9;" d="M301.858,396.479c0.008,0.053,0.014,0.106,0.02,0.159
														c0.043,0.398-0.046,0.95-0.536,0.988c-0.25,0.02-0.482-0.105-0.691-0.24c-0.717-0.465-1.296-1.1-1.821-1.781
														c-0.564-0.732-1.163-1.52-1.342-2.475c-0.186-0.988,0.791-1.463,1.562-0.949
														C300.385,393.069,301.613,394.791,301.858,396.479z"/>
													<path style="fill:#F7E4D9;" d="M298.048,396.532c0.008,0.053,0.014,0.106,0.02,0.159
														c0.043,0.398-0.046,0.95-0.536,0.988c-0.25,0.02-0.482-0.105-0.691-0.24c-0.717-0.465-1.296-1.1-1.821-1.781
														c-0.564-0.732-1.163-1.52-1.342-2.475c-0.186-0.988,0.791-1.463,1.562-0.949
														C296.575,393.122,297.803,394.844,298.048,396.532z"/>
												</g>
											</g>
										</g>
									</g>
								</g>
							</g>
						</g>
					</g>
					<g>
						<path style="fill:#444444;" d="M403.541,329.034c0,0-5.181,25.906-11.546,28.956c-0.107,0.053-0.213,0.096-0.331,0.138
							c-7.346,2.761-47.655-1.589-47.655-1.589s-0.618-2.164-1.45-5.192c-1.844-6.621-8.467-16.338-8.467-17.799
							c7.276-1.953,32.923-2.233,32.923-2.233l12.559-8.145L403.541,329.034z"/>
						<path style="fill:#2A2B2B;" d="M403.541,329.034c0,0-5.181,25.906-11.546,28.956c-0.107,0.053-0.213,0.096-0.331,0.138
							c-7.346,2.761-47.655-1.589-47.655-1.589s-0.618-2.164-1.45-5.192c7.271,2.122,18.326,3.18,25.651,3.17
							c7.57-0.021,15.373-0.696,21.013-5.76c5.426-4.861,8.412-12.74,6.472-19.723H403.541z"/>
					</g>
				</g>
				<g>
					<g>
						<path style="fill:#BD4761;" d="M402.529,333.554L402.529,333.554c-3.505-3.747-50.826-15.823-50.826-15.823l-6.244,2.06
							c0,0,1.793-4.057,2.804-5.118c1.659-1.741,4.514-2.63,4.514-2.63l0.088-5.034c-0.386-3.53-3.096-31.474-2.734-44.179v-0.097
							c0.128-4.318,1.56-8.499,4.077-12.005c0.941-1.303,1.584-2.083,1.737-2.276c0.016-0.008,0.016-0.016,0.024-0.032
							c0-0.008,0.008-0.008,0.008-0.008c0.555-0.547,1.126-1.061,1.713-1.552c7.052-5.943,15.897-7.953,15.897-7.953
							c0.74-0.161,2.436,0.169,4.206,0.635c2.131,0.555,4.358,1.327,5.187,1.665c0.016,0.008,0.024,0.016,0.032,0.016
							c8.001,3.378,13.927,19.999,18.076,37.818c0.547,2.34,1.062,5.042,1.552,7.969c1.781,10.66,2.806,21.424,3.137,32.217
							C405.931,324.202,404.82,329.135,402.529,333.554z"/>
						<g>
							<g>
								<path style="fill:#BD4761;" d="M390.294,263.73l-14.079-11.905l-10.646,24.66l-36.306,3.808l2.096,19.378
									c0,0,43.633,3.017,48.266-4.287C384.259,288.079,396.355,269.727,390.294,263.73z"/>
								<path style="fill:#9B344F;" d="M379.479,256.199c-3.205,4.678-5.916,9.751-8.19,14.943
									c-0.594,1.355-0.751,2.646-2.166,3.349c-1.103,0.548-3.502,0.289-4.756,0.437c-3.182,0.375-6.304,0.911-9.379,1.821
									c-0.521,0.154-0.388,0.907,0.162,0.835c5.089-0.667,10.112-1.463,15.25-1.68c0.354-0.015,0.627-0.163,0.765-0.5
									c2.643-6.439,5.882-12.466,9.559-18.365C381.234,256.22,380.027,255.398,379.479,256.199z"/>
								<path style="fill:#9B344F;" d="M393.401,268.076c-0.322-0.778-1.465-0.194-1.166,0.579
									c2.158,5.588-1.536,11.064-4.616,15.488c-2.684,3.856-6.291,6.988-9.074,10.7c-0.09-0.016-0.19-0.014-0.3,0.021
									c-4.98,1.537-10.404,1.627-15.353,3.242c-0.389,0.127-0.441,0.764,0.045,0.783c4.96,0.19,10.458-1.282,15.245-2.583
									c0.085,0.023,0.179,0.016,0.272-0.039c0.057-0.034,0.112-0.073,0.169-0.107c0.072-0.034,0.138-0.07,0.189-0.12
									c4.882-3.051,8.902-9.139,11.867-13.885C393.369,277.846,395.472,273.083,393.401,268.076z"/>
							</g>
							<path style="fill:#F3A080;" d="M328.675,288.965c-0.218,2.471-0.553,5.056-1.278,7.472l3.605-0.073l-0.969-8.953
								c-0.618,0.01-2.183,0.13-2.183,0.13s0.005-0.022,0-0.035C327.861,287.989,328.718,288.477,328.675,288.965z"/>
							<g>
								<g>
									<g>
										<g>
											<path style="fill:#F3A080;" d="M305.159,286.261c0,0,0.112,1.347,0.323,3.003c0.03,0.201,0.063,0.42,0.093,0.611
												c0.142,0.985,0.347,2.021,0.585,2.908c0,0.097,0.037,0.171,0.057,0.266c0.133,0.432,0.272,0.835,0.43,1.139
												c0.155,0.372,0.338,0.634,0.537,0.778l5.193-1.561c0,0,1.191,0.817,2.636,1.733l0.011,0.009
												c1.821,1.178,4.047,2.517,4.683,2.567c0.413,0.054,8.493-1.091,9.417-1.624l0.115-1.409l0.412-4.972l-0.413-0.52
												l-1.053-1.345l-0.335-0.421l-3.177-4.034c-0.521-0.528-1.212-1.203-2.018-1.953l0.008-0.011
												c-0.387-0.357-0.815-0.749-1.251-1.111c-1.54-1.363-3.33-2.709-4.929-3.434c-0.021-0.017-0.033-0.035-0.033-0.035
												c-0.346-0.148-0.668-0.26-0.979-0.363c-0.33-0.092-0.627-0.148-0.911-0.177c-4.019-0.298-10.134-0.688-10.44,0.935
												c-0.337,1.607,11.015,2.527,11.015,2.527l0.881,3.052l-4.779,0.043L305.159,286.261z"/>
											<g>
												<g>
													<path style="fill:#B54B57;" d="M306.155,292.79c0.019,0.086,0.045,0.173,0.065,0.256
														c0.207-0.092,0.475-0.217,0.8-0.364c0.738-0.331,1.743-0.762,2.839-1.207c1.099-0.436,2.116-0.763,2.908-0.923
														c0.2-0.038,0.382-0.072,0.542-0.103c0.163-0.016,0.304-0.033,0.421-0.043c0.235-0.029,0.371-0.046,0.371-0.046
														s-0.128-0.047-0.367-0.121c-0.118-0.038-0.267-0.082-0.439-0.129c-0.173-0.03-0.369-0.061-0.594-0.092
														c-0.882-0.11-2.14-0.016-3.346,0.463c-1.199,0.487-2.104,1.191-2.684,1.754
														C306.456,292.446,306.286,292.634,306.155,292.79z"/>
												</g>
												<g>
													<path style="fill:#B54B57;" d="M305.488,289.261c0.027,0.206,0.059,0.414,0.09,0.626
														c0.044-0.015,0.088-0.036,0.13-0.056c0.738-0.331,1.743-0.762,2.837-1.204c1.1-0.439,2.118-0.766,2.91-0.926
														c0.2-0.038,0.379-0.073,0.538-0.102c0.165-0.018,0.307-0.031,0.422-0.046c0.238-0.027,0.369-0.043,0.369-0.043
														s-0.125-0.045-0.363-0.122c-0.119-0.035-0.267-0.082-0.44-0.126c-0.172-0.033-0.373-0.063-0.593-0.094
														c-0.886-0.109-2.145-0.015-3.348,0.466C306.927,288.083,306.066,288.722,305.488,289.261z"/>
												</g>
											</g>
										</g>
									</g>
								</g>
							</g>
						</g>
						<path style="fill:#9B344F;" d="M381.381,251.71c-3.098,3.005-5.413,6.193-9.272,8.405c-1.896,1.087-3.952,2.022-6.076,2.56
							c-4.274,1.083-9.439-0.214-9.596-5.529c-0.012-0.396-0.555-0.461-0.679-0.092c-1.998,5.95,5.621,8.395,10.099,7.509
							c6.242-1.235,14.071-5.913,16.679-11.963C382.848,251.875,382.024,251.086,381.381,251.71z"/>
						<path style="fill:#9B344F;" d="M396.083,312.894c-5.771-1.93-12.686-2.144-18.719-2.186
							c-4.559-0.032-9.941-0.204-14.567,1.019c-2.024-0.111-4.046-0.111-6.044,0.04c-0.752,0.057-0.751,1.108,0,1.168
							c1.156,0.092,2.308,0.178,3.457,0.264c0.013,0.003,0.025,0.009,0.038,0.01c0.245,0.021,0.492,0.034,0.738,0.048
							c4.259,0.326,8.483,0.702,12.713,1.583c4.683,0.975,9.293,3.242,13.987,3.818c0.501,0.061,0.554-0.623,0.232-0.855
							c-4.084-2.927-10.339-3.894-15.2-4.805c-0.507-0.095-1.019-0.184-1.53-0.272c2.321-0.225,4.639-0.422,6.924-0.383
							c6.02,0.102,11.844,1.344,17.809,1.746C396.635,314.139,396.706,313.103,396.083,312.894z"/>
						<path style="fill:#F3A080;" d="M382.992,241.207c-2.365,6.554-7.213,12.199-13.397,15.415
							c-2.549,1.327-5.661,2.243-8.258,0.997c-2.211-1.061-3.498-3.506-3.82-5.934c-0.217-1.6-0.08-3.216,0.185-4.825
							c7.052-5.943,15.897-7.953,15.897-7.953c0.74-0.161,2.436,0.169,4.206,0.635C379.936,240.097,382.163,240.869,382.992,241.207
							z"/>
						<g>
							<path style="fill:#38102B;" d="M342.45,205.264c0,0-1.465,2.37-0.904,4.993c0.561,2.623,4.582,11.629,4.582,11.629
								l-0.769-17.735L342.45,205.264z"/>
							<g>
								<g>
									<g>
										<g>
											<g>
												<g>
													<path style="fill:#F3A080;" d="M361.432,247.692c-0.064,1.392-0.155,3.264-0.243,5.061
														c2.141-0.721,4.228-1.565,6.148-2.734c3.292-2.004,6.125-4.356,9.588-5.942c-0.075-1.836-0.233-4.409-0.396-6.83
														c-0.242-3.594-0.491-6.85-0.491-6.85l-15.788,7.221c0,0,1.268,6.434,1.268,7.919
														C361.518,245.718,361.482,246.541,361.432,247.692z"/>
													<path style="fill:#EA7C6F;" d="M376.53,237.247c-4.385,3.185-14.046,10.153-15.012,10.427
														c-0.028,0.007-0.057,0.014-0.085,0.018c0.05-1.151,0.085-1.973,0.085-2.155c0-1.485-1.268-7.919-1.268-7.919
														l15.788-7.221C376.038,230.397,376.287,233.653,376.53,237.247z"/>
												</g>
											</g>
											<g>
												<g>
													<path style="fill:#F3A080;" d="M378.199,230.948c0,0-0.395,1.14-2.159,2.7h-0.004c-0.36,0.321-0.78,0.659-1.264,1.008
														c-1.853,1.329-19.194,8.76-21.866,8.404c-2.672-0.356-5.19-9.537-5.329-10.503c-0.859-5.924-3.221-25.079-3.221-25.079
														c6.651-11.698,30.102-8.77,32.774-6.81C379.802,202.627,378.199,230.948,378.199,230.948z"/>
													<g>
														<path style="fill:#EA7C6F;" d="M352.893,225.226c2.261,1.032,3.515,0.85,5.795,0.858
															c-0.03,1.076-0.901,2.246-1.563,2.817C354.675,227.608,354.653,227.063,352.893,225.226z"/>
														<path style="fill:#DD5B67;" d="M351.798,223.561c0.572-2.046,3.493-0.896,5.137,0.017
															c-0.681-2.328-1.462-4.62-1.855-7.069c-0.049-0.302,0.26-0.503,0.384-0.216c0.625,1.45,1.09,3.009,1.524,4.575
															c0.214,0.773,0.421,1.55,0.638,2.322c0.1,0.355,0.701,1.7,0.215,1.887c-0.176,0.068-0.359-0.043-0.525-0.148
															c-0.998-0.634-2.036-1.156-3.099-1.558c-0.235-0.089-0.478-0.173-0.721-0.142c-0.406,0.051-0.722,0.487-0.625,1.051
															c0.094,0.545,0.48,0.967,0.773,1.33c0.352,0.437,0.725,0.843,1.11,1.227c0.744,0.743,1.532,1.404,2.319,2.064
															c-0.216-0.181-0.592-0.225-0.838-0.338c-0.292-0.135-0.579-0.287-0.862-0.455c-0.565-0.336-1.108-0.736-1.623-1.194
															C353.042,226.283,351.404,224.973,351.798,223.561z"/>
													</g>
													<path style="fill:#F8BF92;" d="M376.037,233.648c-0.36,0.321-0.78,0.659-1.264,1.008
														c-1.853,1.329-19.194,8.76-21.866,8.404c-2.672-0.356-5.19-9.537-5.329-10.503c1.664,4.033,3.544,9.608,5.435,9.43
														C355.864,241.72,373.932,234.756,376.037,233.648z"/>
												</g>
												<g>
													<path style="fill:#4A0E2F;" d="M345.965,215.612c0,0,1.248-5.188,3.552-4.336c2.304,0.852,1.638,1.332,1.638,1.332
														L345.965,215.612z"/>
													<path style="fill:#4A0E2F;" d="M370.897,211.182c0,0-6.957-5.69-8.927-2.906c-1.149,1.625-0.022,2.404-0.022,2.404
														L370.897,211.182z"/>
													<g>
														<path style="fill:#1D1E1E;" d="M368.253,218.119c0,1.843-0.93,3.337-2.078,3.337c-1.148,0-2.078-1.494-2.078-3.337
															s0.93-3.337,2.078-3.337C367.323,214.782,368.253,216.276,368.253,218.119z"/>
														<path style="fill:#FEF1E8;" d="M370.238,216.257c0,0-0.731,1.146-1.997,1.659c-1.267,0.513-2.589,0.197-2.589,0.197
															s0.731-1.146,1.997-1.659C368.916,215.942,370.238,216.257,370.238,216.257z"/>
													</g>
													<g>
														<path style="fill:#1D1E1E;" d="M348.605,219.371c0,1.389,0.701,2.515,1.566,2.515c0.865,0,1.566-1.126,1.566-2.515
															c0-1.389-0.701-2.515-1.566-2.515C349.306,216.855,348.605,217.981,348.605,219.371z"/>
														<path style="fill:#FEF1E8;" d="M347.26,218.15c0,0,0.55,0.742,1.451,1.106c0.901,0.365,1.812,0.214,1.812,0.214
															s-0.55-0.742-1.451-1.106C348.171,218,347.26,218.15,347.26,218.15z"/>
													</g>
													<path style="fill:#EA7C6F;" d="M350.151,227.073c-0.273,0.73-1.851,0.815-3.523,0.189
														c-1.673-0.626-2.807-1.726-2.534-2.456c0.273-0.73,1.851-0.815,3.524-0.189S350.424,226.342,350.151,227.073z"/>
													<path style="fill:#EA7C6F;" d="M371.192,223.664c0.285,1.102-1.528,2.524-4.051,3.178
														c-2.523,0.653-4.799,0.29-5.084-0.811c-0.285-1.102,1.528-2.524,4.051-3.178
														C368.631,222.199,370.907,222.562,371.192,223.664z"/>
													<g>
														<path style="fill:#DD5B67;" d="M353.207,231.396c0,0,0.147,0.111,0.405,0.304c0.26,0.2,0.665,0.451,1.195,0.713
															c1.052,0.529,2.684,1.008,4.521,0.921c1.836-0.095,3.413-0.733,4.407-1.363c0.501-0.314,0.88-0.603,1.119-0.828
															c0.236-0.217,0.373-0.342,0.373-0.342s-0.164,0.085-0.448,0.232c-0.281,0.156-0.707,0.349-1.235,0.555
															c-1.056,0.419-2.565,0.803-4.258,0.892c-1.694,0.08-3.234-0.153-4.326-0.466c-0.545-0.154-0.988-0.303-1.283-0.431
															C353.378,231.464,353.207,231.396,353.207,231.396z"/>
													</g>
												</g>
											</g>
										</g>
									</g>
									<g>
										<path style="fill:#F8BF92;" d="M375.648,231.653c3.572-0.281,6.171-2.4,7.563-4.174c0.313-0.4,0.565-0.783,0.753-1.122
											c1.02-1.85,1.313-8.265-1.313-9.756c-1.841-1.043-3.18,0.471-3.817,1.472c0,0.002,0,0.003,0,0.003
											c-0.271,0.426-0.416,0.759-0.416,0.759L375.648,231.653z"/>
										<path style="fill:#F3A080;" d="M375.648,231.653c3.572-0.281,6.171-2.4,7.563-4.174c0.121-0.181,0.226-0.354,0.315-0.517
											c1.02-1.85,1.313-8.265-1.313-9.754c-1.49-0.846-2.653-0.014-3.379,0.866c0,0.002,0,0.003,0,0.003
											c-0.271,0.426-0.416,0.759-0.416,0.759L375.648,231.653z"/>
										<path style="fill:#EA7C6F;" d="M383.48,221.697c0.132,0.513,0.048,1.047-0.12,1.554c-0.717,2.153-2.868,3.796-4.926,5.321
											c0.621-1.044,0.849-2.223,0.722-3.371c-0.044-0.399-0.13-0.797-0.134-1.198
											C379.005,222.389,382.702,218.664,383.48,221.697z"/>
										<g>
											<path style="fill:#8E503D;" d="M377.4,229.184c0,0,0.04-0.023,0.117-0.066c0.074-0.045,0.195-0.105,0.332-0.198
												c0.276-0.184,0.656-0.479,1.015-0.917c0.357-0.436,0.681-1.019,0.835-1.709c0.139-0.688,0.11-1.489-0.259-2.262
												c-0.039-0.098-0.094-0.191-0.15-0.283l-0.041-0.069c-0.01-0.017-0.004-0.006-0.006-0.008l0.001,0.002l-0.002-0.001
												l-0.001,0c0,0-0.002,0.003,0.006-0.011l0.034-0.062l0.069-0.122c0.048-0.081,0.094-0.161,0.144-0.24
												c0.194-0.315,0.405-0.612,0.62-0.887c0.216-0.275,0.44-0.529,0.661-0.76c0.223-0.23,0.438-0.446,0.651-0.606
												c0.213-0.161,0.447-0.266,0.666-0.294c0.22-0.025,0.427,0.025,0.567,0.094c0.142,0.071,0.22,0.161,0.252,0.229
												c0.035,0.068,0.033,0.109,0.036,0.108c0,0,0.011-0.039-0.006-0.115c-0.014-0.075-0.071-0.188-0.212-0.293
												c-0.14-0.102-0.359-0.197-0.65-0.205c-0.29-0.002-0.604,0.095-0.883,0.253c-0.282,0.158-0.535,0.357-0.802,0.574
												c-0.265,0.22-0.533,0.467-0.791,0.742c-0.257,0.276-0.506,0.578-0.732,0.907c-0.057,0.082-0.111,0.166-0.165,0.251
												l-0.079,0.129l-0.105,0.182l-0.073,0.128c0.019,0.042,0.047,0.085,0.071,0.128l0.105,0.182
												c0.047,0.08,0.095,0.16,0.128,0.246c0.321,0.67,0.393,1.371,0.332,2c-0.075,0.63-0.286,1.189-0.544,1.633
												c-0.259,0.444-0.555,0.775-0.777,0.993c-0.11,0.11-0.21,0.185-0.271,0.242C377.433,229.155,377.4,229.184,377.4,229.184z
												"/>
										</g>
									</g>
								</g>
							</g>
							<g>
								<path style="fill:#38102B;" d="M381.815,207.43v8.719l-4.416,4.365l-1.89-12.375c-2.886-3.584-7.107-6.08-11.646-6.881
									c-4.539-0.791-9.356,0.113-13.289,2.516c-2.578,1.561-4.848,3.769-7.743,4.611c-1.921-0.072-3.862-0.493-5.669-1.202
									c-0.277-0.103-0.555-0.216-0.832-0.339c2.855-0.657,5.443-2.434,7.086-4.858c-1.561,0.103-3.143-0.021-4.673-0.36
									c4.806-5.197,10.547-9.52,16.873-12.694c-1.704-0.01-3.091-1.356-4.087-2.732c4.139,0.585,8.339-0.175,12.52-0.442
									c4.18-0.257,8.658,0.082,12.046,2.547c2.927,2.126,4.653,5.577,5.536,9.089C382.359,200.313,382.102,204.442,381.815,207.43
									z"/>
								<path style="fill:#4A0E2F;" d="M382.102,202.172c0,1.838-0.133,3.707-0.287,5.258v1.13
									c-1.387-0.894-2.629-2.054-3.728-3.276c-2.167-2.403-4.006-5.135-6.512-7.179c-2.506-2.044-5.977-3.317-9.007-2.177
									c0.986,0.585,1.972,1.171,2.958,1.756c-6.162-0.267-12.385,0.883-18.044,3.348c0.534,0.247,1.058,0.493,1.592,0.729
									c-0.308,0-3.286,2.167-3.697,2.383c-1.407,0.739-2.896,1.335-4.416,1.808c-1.129,0.349-2.465,0.873-3.8,1.232
									c-0.277-0.103-0.555-0.216-0.832-0.339c2.855-0.657,5.443-2.434,7.086-4.858c-1.561,0.103-3.143-0.021-4.673-0.36
									c0.904-0.975,1.838-1.92,2.804-2.834l0.01-0.01c4.17-3.933,8.924-7.271,14.06-9.849c-1.704-0.01-3.091-1.356-4.087-2.732
									c4.139,0.585,8.339-0.175,12.52-0.442c4.18-0.257,8.658,0.082,12.046,2.547c2.927,2.126,4.653,5.577,5.536,9.089
									C381.979,198.793,382.102,200.478,382.102,202.172z"/>
								<path style="fill:#5F1234;" d="M382.102,202.172c-0.544-0.493-1.037-1.037-1.489-1.602c-2.198-2.773-3.728-6.1-6.398-8.421
									c-3.184-2.763-7.857-3.687-11.862-2.362c0.616,0.852,1.222,1.705,1.828,2.557c-2.793-0.041-5.577-0.082-8.36-0.123
									c0.781,0.421,1.561,0.852,2.331,1.284c-5.536,1.756-11.061,3.512-16.596,5.279c4.17-3.933,8.924-7.271,14.06-9.849
									c-1.704-0.01-3.091-1.356-4.087-2.732c4.139,0.585,8.339-0.175,12.52-0.442c4.18-0.257,8.658,0.082,12.046,2.547
									c2.927,2.126,4.653,5.577,5.536,9.089C381.979,198.793,382.102,200.478,382.102,202.172z"/>
							</g>
						</g>
					</g>
				</g>
				<g>
					<path style="fill:#2A2B2B;" d="M163.742,183.743c-0.471,9.846-0.941,19.681-1.421,29.517
						c-0.261,5.519-0.533,11.037-1.327,16.504c-0.585,4.035-1.516,8.174-4.014,11.403c-3.815,4.923-10.41,6.679-16.587,7.494
						c-6.93,0.899-14.058,0.993-20.821-0.763c-1.578-0.408-3.125-0.92-4.641-1.547c-4.985-2.049-9.49-5.237-12.657-9.564
						c-4.118-5.644-5.696-13.316-3.261-19.859c2.644-7.087,9.511-12.24,11.131-19.629c1.15-5.236-0.554-10.661-0.377-16.023
						c0.596-17.027,20.183-28.127,35.767-25.451c6.647,1.15,13.128,4.913,16.138,10.954c1.275,2.551,1.86,5.331,2.101,8.195
						C164.014,177.869,163.889,180.837,163.742,183.743z"/>
					<path style="fill:#444444;" d="M157.503,174.263c-0.314-3.616-1.903-7.107-4.422-9.71c0.23,2.676-1.066,5.435-3.271,6.971
						c-2.216,1.526-5.257,1.777-7.682,0.617c-0.094-3.063-1.035-6.083-2.697-8.654c-1.537,5.456-5.687,10.107-10.933,12.239
						c-4.15,1.693-9.271,2.164-11.821,5.843c-1.965,2.833-1.651,6.647-0.753,9.982c0.888,3.324,2.3,6.595,2.268,10.034
						c-0.021,4.359-2.331,8.351-4.808,11.936c-2.467,3.585-5.226,7.118-6.376,11.32c-1.161,4.202-0.24,9.355,3.418,11.717
						l5.121,9.574c-0.209,0.073-0.408,0.146-0.617,0.219c-4.985-2.049-9.49-5.237-12.657-9.564
						c-3.23-4.421-4.892-10.097-4.285-15.49c0.157-1.484,0.502-2.958,1.025-4.369c2.644-7.087,9.511-12.24,11.131-19.629
						c1.15-5.236-0.554-10.661-0.377-16.023c0.596-17.027,20.183-28.127,35.767-25.451c6.647,1.15,13.128,4.913,16.138,10.954
						c0.126,0.251,0.24,0.502,0.345,0.753c1.045,2.341,1.537,4.86,1.756,7.442C161.683,174.733,159.593,174.493,157.503,174.263z"/>
					<g>
						<g>
							<g>
								<polygon style="fill:#F3A080;" points="237.037,416.378 225.132,418.418 221.73,418.995 215.983,402.636 221.635,400.817 
									233.406,397.02 								"/>
								<polygon style="fill:#EA7C6F;" points="225.132,418.418 221.73,418.995 215.983,402.636 221.635,400.817 								"/>
							</g>
							<path style="fill:#A897A5;" d="M167.439,320.472c0,0,43.155-6.017,50.856,1.507c6.934,6.775,21.968,82.622,21.968,82.622
								l-26.891,3.407l-10.892-52.143l-49.455-18l-10.213-17.425L167.439,320.472z"/>
							<g>
								<g>
									<polygon style="fill:#F3A080;" points="201.705,440.428 188.266,439.335 184.428,439.016 182.687,419.758 189.3,419.359 
										203.074,418.516 									"/>
									<polygon style="fill:#EA7C6F;" points="188.266,439.335 184.428,439.016 182.687,419.758 189.3,419.359 									"/>
								</g>
								<path style="fill:#BCACB8;" d="M206.599,425.055l-15.894,1.168l-14.429,1.056l0.617-72.812c0,0-59.335,1.998-65.873-7.873
									c-4.413-6.676-2.374-33.076-2.374-33.076l3.548,0.698l39.856,7.847c0,0,46.064,7.823,53.611,16.292
									C213.22,346.815,206.599,425.055,206.599,425.055z"/>
								<path style="fill:#A897A5;" d="M182.913,426.793l-6.637,0.486l0.617-72.812c0,0-59.335,1.998-65.873-7.873
									c-4.413-6.676-2.374-33.076-2.374-33.076l3.548,0.698c0.219,5.209,1.381,27.698,5.344,28.73
									c4.475,1.178,65.556,5.859,65.556,5.859L182.913,426.793z"/>
							</g>
						</g>
						<g>
							<path style="fill:#F3A080;" d="M156.415,268.822c0,0,8.44,11.237,15.802,19.47c4.379,4.913,8.388,8.756,9.972,8.507
								c4.262-0.663,36.031-7.182,36.031-7.182l-0.256-3.157l-0.403-5.083l-0.07-0.918l-0.126-1.513l-0.009,0.004l-1.123,0.023
								c-0.042-0.003-0.093-0.002-0.145-0.001l-0.451,0.006l-32.412,0.601c-5.062-7.497-16.768-23.377-16.768-23.377l-3.429,4.307
								L156.415,268.822z"/>
							<path style="fill:#EA7C6F;" d="M172.217,288.292c4.379,4.913,8.388,8.756,9.972,8.507c4.262-0.663,36.031-7.182,36.031-7.182
								l-0.256-3.157l-0.905-0.75c0,0-31.516,6.216-32.363,6.235C184.236,291.955,177.938,290.05,172.217,288.292z"/>
							<path style="fill:#F8BF92;" d="M163.029,260.508l20.667,24.218c1.68,0.318,32.957-3.108,32.957-3.108l0.838-1.159
								l-0.126-1.513l-0.009,0.004l-1.123,0.023c-0.042-0.003-0.093-0.002-0.145-0.001l-0.451,0.006l-32.412,0.601
								c-5.062-7.497-16.768-23.377-16.768-23.377L163.029,260.508z"/>
							<g>
								<g>
									<path style="fill:#F3A080;" d="M248.113,272.672c-0.293-1.215-20.377-0.562-20.377-0.562
										c2.342-2.165,3.918-5.157,4.378-8.318c0.004-0.03,0.007-0.059,0.011-0.088c0.029-0.288,0.01-0.605-0.214-0.769
										c-0.108-0.079-0.244-0.105-0.376-0.119c-1.132-0.117-2.231,0.487-3.053,1.278c-0.817,0.79-1.425,1.772-2.147,2.646
										c-1.381,1.686-3.316,2.753-5.226,3.796c-3.228,1.773-3.746,8.417-3.746,8.417s-0.522,0.112-1.233,0.277l1.44,10.059
										l4.414-0.668l2.531,1.3c1.932,0.687,21.015-1.836,21.213-3.11c0.055-0.344,0.08-0.724,0.089-1.093
										c0.012-0.573-0.017-1.112-0.037-1.471c-0.019-0.265-0.04-0.427-0.04-0.427s0.332-0.635,0.613-1.416
										c0.179-0.459,0.335-0.97,0.406-1.428c0.082-0.495,0.049-0.929-0.174-1.173c-0.223-0.244-1.419-0.489-3.004-0.717
										c-3.911-0.572-10.171-1.081-9.878-1.444c0.413-0.5,14.086-2.849,14.086-2.849s0.243-0.359,0.351-0.924
										C248.203,273.532,248.221,273.121,248.113,272.672z"/>
									<path style="fill:#EA7C6F;" d="M246.584,279.799c-0.223-0.244-1.419-0.489-3.004-0.717
										c-0.687,0.931-1.167,2.164-1.862,2.981c-1.087,1.271-2.462,2.302-3.999,2.959c-2.52,1.073-5.352,1.168-8.083,0.964
										c-2.73-0.2-5.449-0.671-8.185-0.663c-1.475,0.004-2.939,0.153-4.393,0.385l0.532,4.042l4.394-1.132l2.531,1.3
										c1.932,0.687,21.015-1.836,21.213-3.11c0.055-0.344,0.08-0.724,0.089-1.093c0.012-0.573-0.017-1.112-0.037-1.471
										c-0.019-0.265-0.04-0.427-0.04-0.427s0.332-0.635,0.613-1.416c0.179-0.459,0.335-0.97,0.406-1.428
										C246.84,280.477,246.807,280.043,246.584,279.799z"/>
									<g>
										<g>
											<path style="fill:#B54B57;" d="M246.354,282.401c-0.36,0.014-0.728,0.024-1.1,0.022c-2.176-0.003-4.143-0.26-5.549-0.524
												c-1.319-0.249-2.156-0.489-2.254-0.52c0.101-0.013,0.965-0.117,2.294-0.216c1.422-0.106,3.368-0.216,5.509-0.212
												c0.516,0.001,1.019,0.01,1.505,0.021C246.689,281.429,246.531,281.94,246.354,282.401z"/>
										</g>
										<g>
											<path style="fill:#B54B57;" d="M245.814,285.713c-3.463,0.063-6.246-0.484-6.421-0.519
												c0.175-0.05,2.921-0.779,6.389-0.949C245.801,284.603,245.827,285.143,245.814,285.713z"/>
										</g>
									</g>
									<path style="fill:#F8BF92;" d="M216.473,281.652c0.056-0.014,0.124-0.022,0.181-0.035c0.301-0.066,0.612-0.136,0.908-0.241
										c0.236-0.1,0.456-0.214,0.653-0.38c0.525-0.439,0.731-1.144,0.892-1.81c0.54-2.155,0.913-4.435,2.204-6.25
										c1.524-2.14,4.082-3.275,5.978-5.098c1.375-1.325,2.461-3.041,4.183-3.864c0.206-0.098,0.428-0.181,0.655-0.278
										c0.026-0.279,0.012-0.603-0.211-0.766c-0.114-0.075-0.249-0.101-0.379-0.117c-1.132-0.118-2.236,0.484-3.052,1.283
										c-0.819,0.79-1.425,1.768-2.147,2.64c-1.386,1.689-3.314,2.754-5.22,3.799c-3.236,1.773-3.76,8.413-3.76,8.413
										s-0.52,0.035-1.123,0.023c-0.042-0.003-0.093-0.002-0.145-0.001l-0.451,0.006L216.473,281.652z"/>
								</g>
								<g>
									<path style="fill:#B54B57;" d="M221.481,284.121c0,0,0.145-0.015,0.397-0.041c0.259-0.027,0.626-0.105,1.07-0.253
										c0.884-0.289,2.068-0.961,2.975-2.105c0.903-1.148,1.283-2.456,1.36-3.382c0.041-0.466,0.032-0.842-0.001-1.1
										c-0.033-0.251-0.052-0.396-0.052-0.396s-0.06,0.133-0.165,0.362c-0.095,0.231-0.256,0.557-0.456,0.938
										c-0.4,0.77-1.02,1.731-1.787,2.707c-0.772,0.972-1.564,1.798-2.22,2.365c-0.325,0.283-0.604,0.515-0.807,0.661
										C221.596,284.031,221.481,284.121,221.481,284.121z"/>
								</g>
							</g>
						</g>
						<path style="fill:#8BCCCA;" d="M154.152,225.802c0,0,8.318,6.66,9.84,9.757c1.521,3.097,13.652,30.573,13.652,30.573
							l-21.63,15.232l-3.484-13.178L154.152,225.802z"/>
						<g>
							<g>
								<g>
									<g>
										<g>
											<g>
												<g>
													<path style="fill:#F7E4D9;" d="M173.759,320.365c-31.988,8.861-68.518,3.281-68.609,3.257
														c0.135-1.257,12.304-58.786,9.9-68.569c-1.008-4.104-6.355-22.878-5.886-24.222c0.504-1.423,7.832-6.283,10.937-7.812
														c1.166-0.576,2.192-1.029,2.929-1.28c3.017-1.015,5.717-1.589,5.717-1.589l13.312,0.22c0,0,0.93-0.122,2.731,0.366
														l0,0.012c2.029,0.549,5.179,1.883,9.375,5.055c0.939,0.702,1.921,1.509,2.971,2.408
														c9.843,8.555,3.672,37.043,2.807,40.83C159.462,271.128,173.504,319.205,173.759,320.365z"/>
													<path style="fill:#D0D1D3;" d="M156.769,271.572c-3.711-0.212-6.711-2.241-10.435-1.103
														c-1.691,0.517-3.196,1.487-4.895,1.994c-3.307,0.987-5.941,0.285-9.128-0.784c-0.42-0.141-0.709,0.373-0.379,0.664
														c2.786,2.454,6.576,2.906,10.103,1.94c2.832-0.776,4.771-2.268,7.873-1.944c2.536,0.264,4.38,1.087,6.881,0.476
														C157.427,272.659,157.527,271.615,156.769,271.572z"/>
													<path style="fill:#F3A080;" d="M154.152,225.802c-1.255,3.906-4.897,11.598-14.047,11.001
														c-8.83-0.569-16.441-9.088-20.004-13.784c1.166-0.576,2.192-1.029,2.929-1.28c0.288-0.098,0.576-0.185,0.851-0.272
														c2.648-0.85,4.865-1.317,4.865-1.317l13.312,0.22c0,0,0.93-0.122,2.731,0.366l0,0.012
														c1.767,0.476,4.372,1.549,7.768,3.895C153.066,225.006,153.598,225.393,154.152,225.802z"/>
													<path style="fill:#8BCCCA;" d="M144.79,220.736c0,0,12.101,25.098,13.221,39.065
														c1.12,13.967,7.076,62.611,7.076,62.611l19.844-3.708l-16.966-42.398l-5.293-42.617
														C162.672,233.689,159.242,225.725,144.79,220.736z"/>
													<path style="fill:#8BCCCA;" d="M123.882,221.467c0,0,14.409,35.606,13.045,55.967
														c-1.364,20.361-8.185,61.647-8.185,61.647l-33.68-13.704c0,0,20.104-61.956,14.102-94.547
														C109.164,230.831,114.029,223.529,123.882,221.467z"/>
													<g>
														<g>
															<g>
																<path style="fill:#F3A080;" d="M140.476,232.749l-11.734-12.594c0.053-1.984,0.232-2.728,0.493-7.636
																	c0.282-5.459,0.566-10.574,0.566-10.574l15.311,6.347c-1.785,3.825-2.631,8.204-2.96,12.384
																	C141.464,229.486,140.476,232.749,140.476,232.749z"/>
																<path style="fill:#EA7C6F;" d="M145.112,208.292c-1.785,3.825-2.631,8.204-2.96,12.384
																	c-0.491,0.196-0.969,0.375-1.419,0.524c-1.799,0.593-7.464-4.604-11.499-8.68
																	c0.282-5.459,0.566-10.574,0.566-10.574L145.112,208.292z"/>
															</g>
															<g>
																<g>
																	<path style="fill:#F3A080;" d="M161.581,190.248c-0.335,1.42-0.759,2.911-1.28,4.468c0,0,0.564,7.729-0.275,9.445
																		c-0.843,1.719-6.211,12.414-11.654,11.657c-4.542-0.63-15.564-7.481-19.367-11.518
																		c-0.762-0.803-1.234-1.494-1.313-2.002c-0.481-3.071-2.082-16.608-2.236-17.741
																		c-0.413-3.07-1.316-26.285,26.618-19.37c5.031,1.249,8.952,5.228,10.01,10.301
																		C162.85,179.151,163.041,184.054,161.581,190.248z"/>
																	<g>
																		<path style="fill:#DD5B67;" d="M152.65,205.915c0,0-5.712-4.229-12.089-2.029c0,0,1.896,5.525,5.042,5.966
																			C149.421,210.389,152.65,205.915,152.65,205.915z"/>
																		<path style="fill:#FEF1E8;" d="M152.271,206.007c0,0-4.091-1.944-11.365-1.966c0,0,1.013,4.337,5.171,4.84
																			C150.234,209.385,152.271,206.007,152.271,206.007z"/>
																	</g>
																	<g>
																		<path style="fill:#1D1E1E;" d="M135.834,191.152c0.845-1.955,3.059-3.22,5.173-2.956
																			c2.113,0.264,3.948,2.035,4.286,4.138c-1.204-1.162-2.88-1.788-4.543-1.978
																			C139.087,190.166,137.27,190.291,135.834,191.152z"/>
																	</g>
																	<path style="fill:#F8BF92;" d="M160.301,194.716c0,0,0.564,7.729-0.275,9.445
																		c-0.843,1.719-6.211,12.414-11.654,11.657c-4.542-0.63-15.564-7.481-19.367-11.518
																		c4.685,3.368,17.183,11.973,20.91,10.745c4.618-1.521,9.976-11.597,9.893-12.605
																		c-0.083-1.012-0.274-7.601-0.274-7.601s0.96-2.065,2.049-4.591C161.246,191.669,160.822,193.159,160.301,194.716z"
																		/>
																	<g>
																		<path style="fill:#1D1E1E;" d="M154.441,192.506c0.638-1.476,2.309-2.43,3.905-2.231
																			c1.595,0.199,2.98,1.536,3.235,3.124c-0.909-0.877-2.174-1.35-3.429-1.493
																			C156.897,191.761,155.525,191.856,154.441,192.506z"/>
																	</g>
																</g>
																<g>
																	<path style="fill:#F8BF92;" d="M128.952,201.93c-3.516-0.335-6.044-2.466-7.387-4.237
																		c-0.302-0.399-0.544-0.781-0.724-1.118c-0.975-1.84-1.16-8.168,1.453-9.595c1.831-0.998,3.127,0.516,3.738,1.513
																		c0,0.002,0,0.003,0,0.003c0.261,0.424,0.398,0.755,0.398,0.755L128.952,201.93z"/>
																	<path style="fill:#F3A080;" d="M128.952,201.93c-3.516-0.335-6.044-2.466-7.387-4.237
																		c-0.116-0.18-0.216-0.352-0.302-0.515c-0.975-1.84-1.16-8.167,1.453-9.593c1.483-0.81,2.615,0.029,3.317,0.908
																		c0,0.002,0,0.003,0,0.003c0.261,0.424,0.398,0.755,0.398,0.755L128.952,201.93z"/>
																	<path style="fill:#EA7C6F;" d="M121.394,191.989c-0.138,0.504-0.065,1.032,0.093,1.533
																		c0.672,2.134,2.765,3.788,4.769,5.325c-0.595-1.039-0.801-2.204-0.657-3.334c0.05-0.393,0.141-0.783,0.152-1.178
																		C125.793,192.743,122.21,189.012,121.394,191.989z"/>
																	<g>
																		<path style="fill:#B54B57;" d="M127.266,199.468c0,0-0.039-0.023-0.114-0.067c-0.073-0.046-0.19-0.106-0.324-0.2
																			c-0.269-0.186-0.639-0.483-0.986-0.921c-0.345-0.436-0.655-1.016-0.796-1.698c-0.126-0.68-0.084-1.47,0.292-2.225
																			c0.04-0.096,0.096-0.186,0.152-0.276l0.041-0.067c0.01-0.017,0.004-0.006,0.006-0.008l-0.001,0.002l0.002-0.001
																			l0.001,0c0,0,0.002,0.003-0.006-0.011l-0.032-0.062l-0.066-0.122c-0.046-0.08-0.09-0.161-0.137-0.239
																			c-0.187-0.314-0.389-0.609-0.597-0.884c-0.209-0.275-0.425-0.528-0.639-0.76c-0.216-0.23-0.424-0.447-0.632-0.608
																			c-0.207-0.162-0.436-0.269-0.652-0.301c-0.216-0.028-0.422,0.018-0.561,0.083
																			c-0.141,0.067-0.219,0.156-0.252,0.221c-0.035,0.066-0.034,0.107-0.038,0.106c0,0-0.01-0.039,0.008-0.113
																			c0.015-0.074,0.073-0.184,0.214-0.285c0.14-0.098,0.358-0.188,0.644-0.191c0.286,0.002,0.593,0.103,0.866,0.263
																			c0.275,0.161,0.521,0.361,0.781,0.579c0.257,0.221,0.518,0.469,0.768,0.745c0.249,0.276,0.489,0.578,0.706,0.906
																			c0.055,0.081,0.107,0.165,0.159,0.25l0.076,0.128l0.1,0.181l0.069,0.127c-0.019,0.042-0.048,0.083-0.072,0.125
																			l-0.106,0.178c-0.048,0.078-0.096,0.156-0.13,0.24c-0.328,0.655-0.409,1.345-0.36,1.966
																			c0.063,0.622,0.263,1.177,0.51,1.618c0.248,0.442,0.534,0.773,0.75,0.991c0.106,0.11,0.204,0.186,0.263,0.243
																			C127.233,199.438,127.266,199.468,127.266,199.468z"/>
																	</g>
																</g>
															</g>
														</g>
													</g>
													<g>
														<path style="fill:#444444;" d="M161.665,187.383c0,0-1.281-5.842-3.882-4.94c-2.602,0.903-1.866,1.456-1.866,1.456
															L161.665,187.383z"/>
														<path style="fill:#444444;" d="M136.287,182.496c0,0,8.803-4.9,10.424-1.438c0.946,2.021-0.451,2.657-0.451,2.657
															L136.287,182.496z"/>
														<g>
															<path style="fill:#EA7C6F;" d="M149.929,199.504c-0.569-0.218-1.136-0.541-1.744-0.489
																c0.581,1.394,1.731,2.54,3.127,3.116c0.108,0.045,0.22,0.086,0.337,0.084c0.142-0.003,0.275-0.07,0.399-0.14
																c0.785-0.443,1.482-1.043,2.036-1.753c0.112-0.144,0.221-0.297,0.266-0.475c0.149-0.586-0.258-0.464-0.611-0.332
																c-0.409,0.153-0.837,0.254-1.27,0.303C151.613,199.915,150.733,199.813,149.929,199.504z"/>
															<path style="fill:#DD5B67;" d="M151.443,201.796c0.364-0.315,0.772-0.58,1.145-0.887
																c0.46-0.379,0.891-0.793,1.27-1.254c-1.892-1.35-1.839-3.348-1.709-5.611c0.058-1.021,0.36-2.025,0.872-2.91
																c0.269-0.465,0.594-0.897,0.967-1.283c0.19-0.197,0.392-0.381,0.604-0.553c0.208-0.168,0.42-0.26,0.668-0.357
																c-0.12,0.133-0.203,0.288-0.311,0.425c-0.284,0.357-0.581,0.689-0.827,1.077c-0.246,0.387-0.459,0.796-0.636,1.22
																c-0.354,0.847-0.569,1.755-0.617,2.673c-0.047,0.9,0.071,1.812,0.387,2.658c0.36,0.965,1.011,1.928,1.875,2.502
																c0.008,0.005-1.333,1.502-1.463,1.624c-0.338,0.314-0.704,0.598-1.098,0.838c-0.386,0.236-0.831,0.516-1.298,0.489
																c-0.146-0.008-0.296-0.043-0.413-0.13c0.081-0.052,0.157-0.111,0.227-0.177c0.03-0.029,0.06-0.059,0.089-0.089
																C151.259,201.96,151.35,201.876,151.443,201.796z"/>
														</g>
														<path style="fill:#EA7C6F;" d="M157.122,200.426c0.293,0.824,2.06,0.947,3.946,0.277
															c1.886-0.671,3.178-1.882,2.885-2.706c-0.293-0.824-2.06-0.947-3.946-0.277
															C158.121,198.39,156.829,199.602,157.122,200.426z"/>
														<path style="fill:#EA7C6F;" d="M133.602,196.216c-0.34,1.229,1.666,2.857,4.481,3.636
															c2.815,0.779,5.373,0.414,5.713-0.815c0.34-1.229-1.666-2.857-4.481-3.637
															C136.5,194.621,133.942,194.986,133.602,196.216z"/>
													</g>
												</g>
											</g>
										</g>
									</g>
								</g>
							</g>
						</g>
						<path style="fill:#8BCCCA;" d="M109.164,230.831c0,0-6.338,4.747-8.71,11.4c-2.372,6.653,1.257,37.511,1.257,37.511
							l28.863-0.513l-15.409-45.386L109.164,230.831z"/>
						<path style="fill:#6BAAA7;" d="M125.148,275.389c-1.638-13.148-8.743-26.824-17.165-36.893
							c-0.187-0.223-0.49,0.036-0.346,0.272c3.661,6.012,7.092,12.048,9.918,18.509c2.631,6.013,4.293,12.27,6.474,18.433
							C124.257,276.354,125.228,276.031,125.148,275.389z"/>
						<path style="fill:#6BAAA7;" d="M155.741,234.692c-0.104-0.162-0.333,0.001-0.275,0.164c4.464,12.44,6.744,23.83,4.66,37.073
							c-0.142,0.905,1.219,1.044,1.399,0.167C164.025,259.887,162.579,245.367,155.741,234.692z"/>
						<path style="fill:#F3A080;" d="M107.846,279.637c0,0,2.955,35.577,20.278,27.118c22.631-7.923,44.66-23.879,54.881-31.999
							l-0.054-0.088l-5.308-8.536l-51.533,21.252l-1.412-8.054l-13.165,0.241L107.846,279.637z"/>
						<g>
							<g>
								<path style="fill:#F3A080;" d="M177.644,266.133l5.308,8.536l0.054,0.088l3.436-2.178c0.153-0.087,0.252-0.153,0.296-0.186
									c0.033-0.011,0.044-0.022,0.044-0.022l2.834,0.164c2.047-0.142,18.495-10.145,18.166-11.392
									c-0.088-0.328-0.219-0.69-0.361-1.029c-0.219-0.536-0.459-1.018-0.624-1.335c-0.121-0.241-0.208-0.372-0.208-0.372
									s0.055-0.722-0.011-1.543c-0.022-0.493-0.076-1.029-0.197-1.477c-0.131-0.482-0.328-0.865-0.635-0.996
									c-0.306-0.142-1.499,0.12-3.042,0.547c-3.808,1.051-9.74,3.108-9.619,2.659c0.175-0.624,11.743-8.284,11.743-8.284
									s0.076-0.427-0.044-0.985c-0.077-0.328-0.23-0.711-0.514-1.083c-0.744-0.985-18.341,7.442-18.867,7.682
									c1.269-2.922,1.499-6.282,0.646-9.368c0-0.022-0.011-0.055-0.022-0.077c-0.087-0.285-0.23-0.558-0.503-0.624
									c-0.131-0.033-0.263,0-0.394,0.044c-1.083,0.35-1.85,1.346-2.276,2.397c-0.438,1.051-0.591,2.2-0.897,3.283
									c-0.591,2.101-1.926,3.863-3.261,5.581c-2.244,2.922-0.033,9.214-0.033,9.214S178.224,265.695,177.644,266.133z"/>
								<g>
									<g>
										<path style="fill:#B54B57;" d="M206.583,256.859c-0.324,0.158-0.657,0.315-0.998,0.464
											c-1.993,0.874-3.897,1.43-5.29,1.755c-1.308,0.303-2.17,0.421-2.273,0.432c0.087-0.053,0.836-0.496,2.012-1.121
											c1.259-0.67,2.995-1.555,4.957-2.413c0.473-0.207,0.937-0.401,1.387-0.587
											C206.498,255.835,206.56,256.366,206.583,256.859z"/>
									</g>
									<g>
										<path style="fill:#B54B57;" d="M207.423,260.109c-3.144,1.453-5.912,2.073-6.087,2.111
											c0.14-0.116,2.359-1.889,5.465-3.442C206.964,259.098,207.206,259.582,207.423,260.109z"/>
									</g>
								</g>
							</g>
							<path style="fill:#F8BF92;" d="M107.846,279.637c0,0,2.955,35.577,20.278,27.118c22.631-7.923,44.66-23.879,54.881-31.999
								l3.436-2.178c-0.558,0.328-1.762,1.062-3.491,2.09c-12.892,7.638-54.335,31.725-61.032,29.58
								c-5.899-1.904-9.116-17.017-10.385-24.678L107.846,279.637z"/>
						</g>
					</g>
					<g>
						<path style="fill:#3F455D;" d="M229.992,455.016c-0.145-0.874-0.568-1.893-1.706-2.389
							c-3.319-1.448-15.496-5.932-18.798-8.496c-2.564-1.991-4.829-6.328-5.713-8.168l-22.626,1.162
							c-1.294,5.77-2.12,16.882-2.282,19.208L229.992,455.016z"/>
						<polygon style="fill:#F7E4D9;" points="230.145,460.053 179.02,461.37 178.867,456.332 229.992,455.016 						"/>
						<g>
							<path style="fill:#F7E4D9;" d="M205.226,445.653c-0.034,0.059-0.067,0.118-0.098,0.178c-0.237,0.447-0.377,1.13,0.224,1.38
								c0.307,0.128,0.657,0.079,0.982,0.008c1.118-0.243,2.14-0.744,3.115-1.321c1.048-0.62,2.163-1.291,2.828-2.334
								c0.687-1.078-0.328-2.043-1.537-1.764C208.647,442.281,206.308,443.781,205.226,445.653z"/>
							<path style="fill:#F7E4D9;" d="M209.148,448.253c-0.034,0.059-0.067,0.118-0.098,0.178c-0.237,0.447-0.377,1.13,0.224,1.38
								c0.307,0.128,0.657,0.079,0.982,0.008c1.118-0.243,2.14-0.744,3.115-1.321c1.048-0.62,2.163-1.291,2.828-2.334
								c0.687-1.078-0.329-2.042-1.537-1.764C212.569,444.88,210.23,446.381,209.148,448.253z"/>
							<path style="fill:#F7E4D9;" d="M213.934,449.91c-0.034,0.059-0.067,0.118-0.098,0.178c-0.237,0.448-0.377,1.13,0.224,1.38
								c0.307,0.128,0.657,0.079,0.982,0.008c1.118-0.244,2.14-0.744,3.115-1.321c1.047-0.62,2.163-1.291,2.828-2.334
								c0.687-1.078-0.329-2.043-1.538-1.764C217.356,446.538,215.016,448.038,213.934,449.91z"/>
						</g>
					</g>
					<g>
						<path style="fill:#3F455D;" d="M270.75,427.171c-0.313-0.829-0.927-1.746-2.139-2.01c-3.537-0.773-16.356-2.794-20.095-4.665
							c-2.904-1.452-5.971-5.264-7.197-6.896l-21.964,5.554c-0.144,5.911,1.215,16.971,1.509,19.284L270.75,427.171z"/>
						<polygon style="fill:#F7E4D9;" points="271.883,432.082 221.997,443.349 220.865,438.438 270.75,427.171 						"/>
						<g>
							<path style="fill:#F7E4D9;" d="M244.633,422.82c-0.022,0.064-0.042,0.129-0.062,0.193c-0.145,0.485-0.15,1.182,0.489,1.31
								c0.326,0.066,0.66-0.051,0.965-0.184c1.049-0.457,1.954-1.148,2.797-1.904c0.906-0.813,1.87-1.688,2.318-2.841
								c0.464-1.192-0.721-1.939-1.852-1.431C247.33,418.845,245.329,420.773,244.633,422.82z"/>
							<path style="fill:#F7E4D9;" d="M248.987,424.605c-0.022,0.064-0.043,0.129-0.062,0.194c-0.145,0.485-0.15,1.182,0.489,1.31
								c0.326,0.065,0.66-0.051,0.965-0.184c1.049-0.457,1.954-1.148,2.797-1.903c0.906-0.813,1.87-1.688,2.318-2.841
								c0.464-1.192-0.721-1.939-1.852-1.43C251.684,420.63,249.683,422.558,248.987,424.605z"/>
							<path style="fill:#F7E4D9;" d="M254.004,425.297c-0.022,0.064-0.042,0.129-0.062,0.193c-0.145,0.485-0.149,1.182,0.489,1.31
								c0.326,0.066,0.66-0.051,0.965-0.184c1.049-0.457,1.954-1.148,2.797-1.903c0.906-0.813,1.87-1.688,2.318-2.841
								c0.464-1.192-0.721-1.939-1.852-1.43C256.702,421.322,254.701,423.249,254.004,425.297z"/>
						</g>
					</g>
					<path style="fill:#2A2B2B;" d="M122.294,186.98l4.972,3.891v-11.05l9.021-1.962l2.413-6.513l0.755,5.991l11.402,0.261
						l3.296-5.357v6.402l9.842,2.465c0,0,0.966-20.103-14.843-19.45c-15.809,0.653-26.857,6.912-26.857,6.912l-2.8,10.334
						L122.294,186.98z"/>
					<path style="fill:#444444;" d="M157.503,174.263c-0.314-3.616-1.903-7.107-4.422-9.71c0.23,2.676-1.066,5.435-3.271,6.971
						c-2.216,1.526-5.257,1.777-7.682,0.617c-0.094-3.063-1.035-6.083-2.697-8.654c-1.537,5.456-5.687,10.107-10.933,12.239
						c-2.916,1.192-6.324,1.777-8.968,3.303l-0.042-0.126l2.801-10.337c0,0,11.058-6.25,26.862-6.909
						c9.971-0.418,13.264,7.431,14.351,13.285C161.505,174.712,159.499,174.482,157.503,174.263z"/>
					<path style="fill:#595959;" d="M162.018,167.532c-0.282,0.554-0.637,1.077-1.045,1.568c-3.042-4.777-7.713-8.508-13.055-10.41
						c-0.637,2.018-1.286,4.035-1.923,6.041c-1.557-2.874-4.651-4.85-7.912-5.048c-2.676,6.146-8.435,10.849-14.999,12.24
						c0.47-1.641,0.941-3.282,1.411-4.923c-5.404,2.717-9.491,7.944-10.818,13.839c-1.39,6.188,0.105,12.846-1.882,18.866
						c-1.745,5.31-5.936,9.365-9.375,13.766c-1.819,2.331-3.491,5.017-4.432,7.829c0.157-1.484,0.502-2.958,1.025-4.369
						c2.644-7.087,9.511-12.24,11.131-19.629c1.15-5.236-0.554-10.661-0.377-16.023c0.596-17.027,20.183-28.127,35.767-25.451
						c6.647,1.15,13.128,4.913,16.138,10.954C161.798,167.03,161.913,167.281,162.018,167.532z"/>
				</g>
				<g>
					<path style="fill:#E9B72B;" d="M178.827,316.2c-1.898-0.278-3.678,1.048-3.956,2.946l-19.817,135.427
						c-0.278,1.898,1.048,3.678,2.946,3.956l4.19,0.613c1.898,0.278,3.678-1.048,3.956-2.946l19.817-135.427
						c0.278-1.898-1.048-3.678-2.946-3.956L178.827,316.2z"/>
					<path style="fill:#E9B72B;" d="M335.41,316.2c1.898-0.278,3.678,1.048,3.956,2.946l19.817,135.427
						c0.278,1.898-1.048,3.678-2.946,3.956l-4.19,0.613c-1.898,0.278-3.678-1.048-3.956-2.946l-19.817-135.427
						c-0.278-1.898,1.048-3.678,2.946-3.956L335.41,316.2z"/>
					<g>
						<path style="fill:#526995;" d="M345.717,318.214c0,1.65-1.35,3-3,3H170.482c-1.65,0-3-1.35-3-3v-7.682c0-1.65,1.35-3,3-3
							h172.235c1.65,0,3,1.35,3,3V318.214z"/>
					</g>
				</g>
				<g>
					<g>
						<path style="fill:#D35B30;" d="M237.29,282.257h-18.575c-1.8,0-3.273,1.473-3.273,3.273v18.575c0,1.8,1.473,3.273,3.273,3.273
							h18.575c1.8,0,3.273-1.473,3.273-3.273V285.53C240.563,283.73,239.09,282.257,237.29,282.257z"/>
						<path style="fill:#FFFFFF;" d="M235.328,284.911h-14.65c-1.42,0-2.581,1.162-2.581,2.581v14.65
							c0,1.42,1.162,2.581,2.581,2.581h14.65c1.42,0,2.581-1.162,2.581-2.581v-14.65
							C237.909,286.073,236.747,284.911,235.328,284.911z"/>
						
							<text transform="matrix(1 0 0 1 222.2094 300.6553)" style="fill:#D35B30; font-family:'Montserrat-Black'; font-size:17.0381px;">L</text>
					</g>
					<g>
						<path style="fill:#65A8DF;" d="M265.285,282.257H246.71c-1.8,0-3.273,1.473-3.273,3.273v18.575c0,1.8,1.473,3.273,3.273,3.273
							h18.575c1.8,0,3.273-1.473,3.273-3.273V285.53C268.558,283.73,267.085,282.257,265.285,282.257z"/>
						<path style="fill:#FFFFFF;" d="M263.323,284.911h-14.65c-1.42,0-2.581,1.162-2.581,2.581v14.65
							c0,1.42,1.162,2.581,2.581,2.581h14.65c1.42,0,2.581-1.162,2.581-2.581v-14.65
							C265.904,286.073,264.742,284.911,263.323,284.911z"/>
						
							<text transform="matrix(1 0 0 1 250.2045 300.6553)" style="fill:#65A8DF; font-family:'Montserrat-Black'; font-size:17.0381px;">T</text>
					</g>
					<g>
						<path style="fill:#BD4761;" d="M293.28,282.257h-18.575c-1.8,0-3.273,1.473-3.273,3.273v18.575c0,1.8,1.473,3.273,3.273,3.273
							h18.575c1.8,0,3.273-1.473,3.273-3.273V285.53C296.553,283.73,295.081,282.257,293.28,282.257z"/>
						<path style="fill:#FFFFFF;" d="M291.318,284.911h-14.65c-1.42,0-2.581,1.162-2.581,2.581v14.65
							c0,1.42,1.162,2.581,2.581,2.581h14.65c1.42,0,2.581-1.162,2.581-2.581v-14.65
							C293.899,286.073,292.737,284.911,291.318,284.911z"/>
						
							<text transform="matrix(1 0 0 1 277.0683 300.6553)" style="fill:#BD4761; font-family:'Montserrat-Black'; font-size:17.0381px;">H</text>
					</g>
					<g>
						<path style="fill:#BD4761;" d="M251.131,257.279h-18.575c-1.8,0-3.273,1.473-3.273,3.273v18.575
							c0,1.8,1.473,3.273,3.273,3.273h18.575c1.8,0,3.273-1.473,3.273-3.273v-18.575
							C254.404,258.752,252.931,257.279,251.131,257.279z"/>
						<path style="fill:#FFFFFF;" d="M249.168,259.934h-14.65c-1.42,0-2.581,1.162-2.581,2.581v14.65
							c0,1.42,1.161,2.581,2.581,2.581h14.65c1.42,0,2.581-1.161,2.581-2.581v-14.65
							C251.749,261.095,250.588,259.934,249.168,259.934z"/>
						
							<text transform="matrix(1 0 0 1 234.9189 275.6768)" style="fill:#BD4761; font-family:'Montserrat-Black'; font-size:17.0381px;">E</text>
					</g>
					<g>
						<path style="fill:#5BA69C;" d="M280.72,257.279h-18.575c-1.8,0-3.273,1.473-3.273,3.273v18.575c0,1.8,1.473,3.273,3.273,3.273
							h18.575c1.8,0,3.273-1.473,3.273-3.273v-18.575C283.993,258.752,282.52,257.279,280.72,257.279z"/>
						<path style="fill:#FFFFFF;" d="M278.757,259.934h-14.65c-1.42,0-2.581,1.162-2.581,2.581v14.65
							c0,1.42,1.162,2.581,2.581,2.581h14.65c1.42,0,2.581-1.161,2.581-2.581v-14.65
							C281.338,261.095,280.177,259.934,278.757,259.934z"/>
						
							<text transform="matrix(1 0 0 1 264.5078 275.6768)" style="fill:#5BA69C; font-family:'Montserrat-Black'; font-size:17.0381px;">A</text>
					</g>
					<g>
						<path style="fill:#5BA69C;" d="M177.644,285.53v18.575c0,1.8,1.473,3.273,3.273,3.273h18.575c1.8,0,3.273-1.473,3.273-3.273
							V285.53c0-1.8-1.473-3.273-3.273-3.273h-18.575C179.117,282.257,177.644,283.73,177.644,285.53z"/>
						<path style="fill:#FFFFFF;" d="M180.298,287.492v14.65c0,1.42,1.162,2.581,2.581,2.581h14.65c1.42,0,2.581-1.162,2.581-2.581
							v-14.65c0-1.42-1.162-2.581-2.581-2.581h-14.65C181.46,284.911,180.298,286.073,180.298,287.492z"/>
						
							<text transform="matrix(0 -1 1 0 196.0419 300.7715)" style="fill:#5BA69C; font-family:'Montserrat-Black'; font-size:17.0381px;">B</text>
					</g>
					<g>
						<path style="fill:#E0922F;" d="M265.285,232.158H246.71c-1.8,0-3.273,1.473-3.273,3.273v18.575c0,1.8,1.473,3.273,3.273,3.273
							h18.575c1.8,0,3.273-1.473,3.273-3.273v-18.575C268.558,233.631,267.085,232.158,265.285,232.158z"/>
						<path style="fill:#FFFFFF;" d="M263.323,234.813h-14.65c-1.42,0-2.581,1.162-2.581,2.581v14.65
							c0,1.42,1.162,2.581,2.581,2.581h14.65c1.42,0,2.581-1.162,2.581-2.581v-14.65
							C265.904,235.974,264.742,234.813,263.323,234.813z"/>
						<g>
							
								<text transform="matrix(1 0 0 1 249.0732 250.5562)" style="fill:#E0922F; font-family:'Montserrat-Black'; font-size:17.0381px;">H</text>
						</g>
					</g>
				</g>
			</g>
		</g>
	</g>
</g>
</svg>
